<?xml version="1.0" standalone="no"?>
<!DOCTYPE svg PUBLIC "-//W3C//DTD SVG 20010904//EN"
 "http://www.w3.org/TR/2001/REC-SVG-20010904/DTD/svg10.dtd">
<svg version="1.0" xmlns="http://www.w3.org/2000/svg"
 width="1350.000000pt" height="1806.000000pt" viewBox="0 0 1350.000000 1806.000000"
 preserveAspectRatio="xMidYMid meet">
<metadata>
Created by potrace 1.10, written by Peter Selinger 2001-2011
</metadata>
<g transform="translate(0.000000,1806.000000) scale(0.100000,-0.100000)"
fill="#000000" stroke="none">
<path d="M2945 17560 c-3 -5 -15 -10 -26 -10 -56 0 -209 -117 -209 -161 0 -10
-4 -21 -10 -24 -16 -10 -12 -135 7 -185 9 -25 28 -59 41 -77 13 -18 21 -36 18
-42 -3 -5 -27 -22 -53 -37 -26 -15 -54 -32 -62 -38 -27 -19 -171 -169 -171
-177 0 -4 -13 -27 -28 -51 -27 -41 -46 -79 -76 -150 -36 -83 -52 -280 -30
-354 8 -26 14 -62 14 -80 0 -18 4 -35 9 -38 4 -3 11 -20 15 -38 3 -17 13 -39
22 -49 9 -10 14 -28 12 -41 -2 -18 -11 -24 -38 -28 -74 -11 -75 -88 -3 -257 7
-17 13 -40 13 -51 0 -12 4 -23 9 -26 4 -3 11 -23 15 -44 3 -22 13 -52 21 -68
8 -16 15 -34 15 -40 0 -15 32 -42 72 -62 29 -15 34 -24 44 -72 5 -30 15 -68
22 -83 7 -16 12 -33 12 -38 0 -11 15 -40 48 -91 23 -36 24 -46 29 -265 7 -300
3 -315 -119 -409 -56 -44 -240 -144 -264 -144 -6 0 -25 -7 -40 -15 -16 -8 -38
-15 -50 -15 -11 0 -24 -4 -30 -8 -11 -10 -121 -28 -269 -43 -229 -23 -366
-102 -443 -258 -18 -35 -32 -69 -32 -75 0 -6 -6 -23 -14 -38 -8 -14 -17 -50
-21 -80 -4 -29 -13 -78 -21 -108 -8 -30 -14 -78 -14 -107 0 -28 -4 -55 -10
-58 -5 -3 -10 -36 -11 -73 0 -37 -4 -98 -9 -137 -10 -72 -16 -131 -25 -245 -2
-36 -9 -117 -15 -180 -17 -176 -30 -336 -36 -435 -3 -49 -9 -146 -15 -215 -6
-69 -14 -217 -19 -330 -5 -113 -13 -218 -19 -233 -6 -16 -11 -67 -11 -115 0
-61 -6 -103 -19 -137 -20 -54 -53 -127 -61 -135 -20 -20 -80 -225 -80 -273 0
-21 -5 -48 -11 -59 -23 -42 -32 -601 -22 -1327 2 -173 0 -268 -7 -275 -5 -5
-10 -19 -10 -30 0 -12 -6 -33 -14 -48 -8 -15 -17 -42 -21 -60 -4 -18 -11 -35
-14 -38 -4 -3 -22 -45 -40 -95 -19 -49 -42 -109 -52 -132 -11 -23 -19 -48 -19
-55 0 -8 -5 -19 -11 -25 -20 -20 -23 -135 -6 -214 9 -41 21 -114 27 -164 20
-178 20 -177 145 -305 156 -160 164 -169 213 -230 24 -30 52 -58 62 -62 32
-12 60 21 67 80 3 28 11 52 17 52 6 0 34 -23 62 -51 40 -39 57 -50 72 -45 29
10 34 29 37 151 2 98 0 115 -21 158 -13 27 -24 57 -24 67 0 30 -64 74 -122 85
-52 10 -53 10 -52 45 3 60 32 230 42 243 5 7 13 32 17 57 4 25 12 50 17 57 18
23 21 128 5 184 -63 219 -76 348 -44 445 14 45 22 77 47 191 5 23 13 50 18 60
10 20 26 75 47 168 19 85 35 147 44 170 19 49 41 124 41 138 0 8 7 39 16 68 9
30 25 86 36 124 11 39 24 79 29 90 4 11 10 37 14 59 3 21 10 46 15 55 4 9 13
36 19 61 36 139 44 171 53 235 5 39 14 78 19 87 5 10 9 32 9 50 0 18 5 51 11
73 13 49 34 239 49 435 16 221 17 226 24 238 6 10 13 63 36 262 6 47 15 95 20
108 6 13 10 41 10 62 0 88 23 242 37 247 27 10 83 -87 83 -144 1 -21 7 -65 15
-98 8 -33 15 -77 15 -97 0 -20 5 -40 10 -43 6 -3 10 -18 10 -33 0 -15 6 -47
14 -72 8 -25 19 -71 25 -102 6 -32 16 -84 22 -115 6 -32 15 -72 20 -89 16 -55
14 -175 -4 -229 -20 -58 -20 -57 -86 -197 -28 -59 -51 -110 -51 -113 0 -3 -11
-22 -24 -43 -12 -20 -27 -48 -31 -62 -4 -14 -11 -27 -14 -30 -6 -5 -141 -276
-197 -395 -47 -100 -87 -220 -115 -345 -6 -25 -13 -52 -16 -60 -9 -22 -32
-170 -44 -280 -14 -140 -26 -631 -16 -660 4 -14 13 -83 18 -155 9 -139 29
-298 53 -435 8 -47 20 -119 26 -160 7 -41 18 -100 26 -131 8 -30 14 -71 14
-90 0 -20 3 -39 7 -43 5 -4 13 -35 20 -69 6 -34 19 -96 28 -137 9 -41 22 -106
30 -145 15 -78 34 -150 46 -180 4 -11 10 -40 14 -65 3 -24 10 -49 14 -55 5 -5
11 -34 15 -63 4 -30 11 -61 16 -70 13 -25 50 -152 50 -173 0 -10 4 -20 9 -23
5 -3 12 -26 15 -51 4 -24 11 -47 17 -50 5 -4 9 -15 9 -26 0 -11 9 -45 20 -76
11 -32 20 -70 20 -85 0 -16 4 -36 10 -46 9 -16 20 -74 40 -209 5 -35 14 -71
19 -82 6 -10 16 -130 22 -267 12 -263 9 -310 -36 -524 -21 -100 -34 -203 -35
-271 0 -30 -5 -60 -10 -65 -15 -15 -6 -360 13 -509 23 -177 36 -258 43 -275 4
-8 12 -55 20 -105 21 -146 36 -229 45 -250 11 -28 29 -107 40 -185 6 -36 13
-72 17 -80 3 -8 11 -40 18 -70 32 -137 39 -166 45 -175 4 -5 10 -32 14 -60 4
-27 10 -54 13 -60 4 -5 12 -32 19 -60 6 -27 19 -75 28 -105 10 -30 23 -77 29
-105 7 -27 15 -57 18 -65 3 -8 13 -42 23 -75 9 -33 23 -78 31 -100 7 -22 16
-65 20 -95 4 -30 11 -63 16 -74 11 -20 22 -82 39 -208 8 -54 7 -102 0 -165 -6
-48 -16 -124 -21 -168 -6 -44 -13 -87 -16 -95 -3 -8 -12 -69 -19 -135 -7 -66
-19 -169 -25 -230 -7 -60 -16 -119 -20 -130 -15 -40 -35 -232 -35 -340 1 -165
29 -269 87 -321 33 -31 134 -83 203 -105 33 -10 69 -23 80 -28 42 -18 139 -43
190 -48 50 -5 54 -4 94 32 22 20 41 44 41 51 0 8 4 14 9 14 29 0 54 407 32
515 -6 28 -15 86 -20 130 -17 137 -30 218 -41 260 -27 103 -40 315 -29 495 3
62 -18 236 -32 262 -5 10 -9 35 -10 55 0 21 -6 53 -12 70 -8 23 -10 73 -5 165
3 73 9 185 12 248 3 63 10 135 15 160 5 25 12 92 15 150 3 58 10 121 16 140 5
19 10 64 10 100 1 36 5 97 11 135 12 76 12 77 31 300 19 216 16 661 -5 870 -9
94 -21 217 -27 275 -6 58 -16 148 -22 200 -6 53 -8 114 -4 135 4 22 11 85 16
140 5 55 14 118 20 140 5 22 14 153 20 290 12 313 27 616 40 810 5 83 12 247
16 365 3 118 10 219 15 224 12 13 12 485 -1 522 -5 16 -14 110 -19 209 -10
188 -23 288 -39 308 -5 7 -12 26 -15 44 -3 17 -17 54 -30 82 -14 27 -22 52
-19 55 10 11 47 6 93 -11 44 -15 49 -15 83 1 51 24 82 18 78 -14 -2 -14 -9
-34 -17 -45 -7 -11 -18 -43 -24 -70 -7 -28 -19 -77 -28 -110 -27 -106 -32
-229 -32 -720 0 -458 8 -734 28 -1020 5 -71 10 -166 12 -210 1 -44 6 -87 9
-95 4 -8 10 -152 14 -320 3 -168 11 -322 16 -342 16 -57 32 -204 32 -293 0
-81 -11 -203 -32 -350 -21 -155 -34 -403 -33 -660 1 -251 23 -631 42 -745 5
-30 10 -82 10 -115 1 -33 6 -76 11 -95 6 -19 13 -71 16 -115 2 -44 8 -96 11
-115 10 -58 10 -68 18 -265 4 -104 9 -194 12 -198 8 -13 -19 -287 -28 -293 -5
-3 -9 -27 -9 -54 0 -27 -7 -71 -16 -97 -17 -48 -16 -83 5 -221 4 -28 4 -76 -1
-105 -4 -28 -13 -88 -18 -132 -6 -44 -15 -93 -20 -110 -5 -16 -12 -68 -15
-115 -4 -47 -10 -94 -15 -105 -25 -56 -53 -424 -41 -532 17 -142 39 -202 98
-254 34 -29 41 -31 89 -26 54 6 147 30 201 53 17 8 38 14 47 14 9 0 24 4 34 9
9 5 47 24 84 41 83 39 112 62 145 113 53 85 59 358 13 622 -11 64 -25 166 -41
305 -5 47 -16 114 -23 150 -7 36 -14 99 -15 140 -2 41 -7 82 -11 91 -16 29
-22 171 -10 239 6 36 14 90 19 120 4 30 12 71 18 90 6 19 21 73 33 120 12 47
28 110 36 140 8 30 20 73 26 95 5 22 15 51 20 65 10 23 20 62 51 195 7 28 15
55 18 60 4 6 10 30 14 55 4 24 11 51 15 60 10 20 29 99 45 185 7 39 18 83 24
98 6 16 11 41 11 57 0 16 4 31 9 34 5 3 12 37 16 76 4 39 11 73 16 76 5 3 9
19 9 35 0 16 7 58 15 92 31 133 57 294 75 467 5 47 13 114 19 150 14 82 14
251 1 338 -6 37 -14 114 -20 172 -10 120 -31 251 -56 360 -11 46 -17 113 -16
175 1 140 18 380 31 429 11 41 26 136 41 253 4 35 12 68 18 75 5 7 12 29 14
48 6 43 38 170 48 190 4 9 11 31 15 50 4 19 10 40 14 45 9 16 44 139 74 270 7
28 15 55 18 60 4 6 10 26 13 45 4 19 11 44 15 55 5 11 13 43 19 70 6 28 18 79
27 115 33 134 70 303 85 397 4 28 11 56 14 62 4 6 14 48 22 93 9 46 20 103 24
128 5 25 9 66 9 92 1 26 5 49 10 52 4 3 11 37 15 76 3 39 10 78 15 88 8 16 22
134 41 357 19 232 -4 711 -42 865 -6 25 -14 65 -19 90 -18 98 -49 220 -69 265
-5 11 -19 45 -30 75 -36 90 -196 427 -210 440 -10 9 -80 155 -80 167 0 6 -3
13 -7 15 -5 2 -15 19 -25 38 -118 251 -118 250 -118 398 0 70 5 145 11 167 10
39 28 131 49 250 6 33 15 74 21 91 5 17 9 47 9 67 0 19 5 48 10 62 6 15 15 59
21 98 11 70 50 146 74 147 14 0 33 -93 41 -200 3 -47 10 -96 15 -110 9 -24 17
-82 38 -290 6 -52 15 -111 20 -130 9 -32 19 -153 25 -290 2 -30 8 -82 14 -115
7 -33 12 -80 12 -104 0 -25 4 -58 9 -75 6 -17 14 -65 20 -106 5 -41 16 -105
25 -142 9 -38 23 -96 31 -130 15 -69 35 -143 61 -228 20 -66 69 -247 85 -310
6 -25 18 -57 25 -72 8 -14 14 -36 14 -48 0 -13 14 -69 30 -127 17 -57 30 -114
30 -126 0 -13 5 -28 12 -35 6 -6 14 -30 19 -54 8 -46 22 -101 63 -243 43 -149
36 -282 -25 -460 -5 -16 -12 -59 -15 -95 -5 -56 -2 -78 26 -160 30 -86 40
-140 56 -297 6 -50 4 -53 -21 -63 -14 -5 -37 -10 -50 -10 -43 0 -89 -52 -114
-129 -13 -39 -23 -81 -22 -93 1 -13 2 -67 4 -121 1 -74 6 -100 17 -107 26 -16
36 -12 85 41 59 63 79 62 81 -4 2 -53 16 -77 48 -77 28 0 34 6 81 65 22 28 98
110 170 184 71 73 136 139 142 146 19 20 41 128 48 244 4 57 14 119 21 137 18
43 17 142 -1 174 -8 14 -14 33 -15 43 0 10 -8 37 -18 60 -10 23 -26 62 -36 87
-10 25 -22 53 -27 62 -5 10 -9 23 -9 28 0 10 -15 46 -56 137 -8 17 -14 40 -14
51 0 12 -4 24 -10 27 -6 4 -9 259 -9 708 0 753 -9 955 -49 1057 -5 14 -20 59
-33 100 -13 41 -34 91 -46 111 -12 20 -29 54 -38 75 -18 41 -41 256 -55 514
-19 328 -45 704 -60 875 -6 61 -15 166 -20 235 -6 69 -15 161 -21 205 -6 44
-15 127 -20 185 -16 188 -26 276 -37 311 -6 19 -15 54 -21 79 -29 115 -36 140
-43 140 -5 0 -8 8 -8 18 0 21 -60 115 -101 158 -31 32 -122 81 -199 107 -25 9
-99 21 -165 27 -124 12 -225 27 -260 40 -11 4 -54 18 -95 31 -41 13 -79 26
-85 30 -5 4 -41 23 -80 44 -63 34 -127 78 -163 112 -7 7 -17 13 -21 13 -4 0
-18 19 -32 43 -23 41 -24 47 -26 289 l-1 246 38 65 c40 69 65 142 75 219 6 46
17 58 55 58 11 0 25 10 31 23 7 12 15 24 19 27 12 9 48 105 65 174 9 38 20 76
25 85 69 133 64 226 -13 233 -38 4 -48 35 -23 73 9 13 16 29 16 36 0 6 6 25
14 42 20 49 46 195 46 262 -1 33 -7 78 -15 100 -8 22 -15 49 -15 61 0 11 -7
29 -15 40 -8 10 -15 29 -15 40 0 12 -7 27 -15 34 -8 7 -15 20 -15 30 0 10 -7
23 -15 30 -8 7 -15 16 -15 20 0 19 -84 131 -133 176 -57 52 -72 64 -127 93
-44 23 -48 44 -16 79 60 64 84 147 71 248 -6 50 -12 62 -53 103 -78 78 -117
91 -265 91 -91 0 -138 4 -164 15 -40 17 -188 21 -198 5z m232 -74 c32 -17 73
-64 73 -84 0 -15 29 -22 37 -9 9 15 5 48 -9 64 -17 22 20 28 43 7 52 -47 62
-80 61 -201 0 -72 -5 -120 -13 -129 -14 -17 -154 -13 -203 5 -20 8 -38 8 -65
0 -20 -6 -72 -15 -116 -19 -44 -4 -99 -14 -122 -21 -49 -15 -57 -9 -93 68 -27
56 -28 176 -2 215 38 58 103 101 177 119 53 13 197 3 232 -15z m293 -88 c27
-47 30 -62 30 -136 0 -59 -5 -92 -16 -111 -39 -66 -92 -62 -61 4 25 53 23 183
-3 235 -25 49 -25 60 0 60 13 0 29 -17 50 -52z m65 26 c31 -12 63 -133 49
-188 -9 -36 -24 -22 -24 22 0 20 -7 46 -15 56 -8 11 -15 30 -15 42 0 13 -4 26
-10 29 -10 6 -15 45 -6 45 2 0 12 -3 21 -6z m-395 -377 c0 -12 -7 -30 -15 -40
-7 -11 -16 -38 -20 -60 -4 -23 -11 -57 -17 -75 -12 -40 6 -147 34 -204 18 -37
23 -70 12 -80 -9 -10 -84 27 -111 54 -41 42 -64 162 -43 232 19 66 47 118 82
157 48 53 78 59 78 16z m230 19 c93 -28 249 -129 287 -184 26 -39 33 -334 9
-380 -9 -17 -16 -40 -16 -50 0 -18 -18 -32 -40 -32 -5 0 -26 16 -47 36 -21 20
-57 45 -80 55 -49 23 -54 41 -19 65 47 30 69 82 70 164 0 65 -3 81 -26 116
-36 57 -94 104 -177 145 -56 27 -71 39 -71 57 0 18 5 22 33 22 17 0 52 -6 77
-14z m-450 -15 c0 -4 -12 -17 -27 -27 -47 -32 -107 -100 -131 -146 -16 -34
-22 -63 -22 -114 0 -78 21 -129 71 -173 37 -33 37 -56 -1 -70 -17 -5 -54 -33
-83 -60 -51 -48 -54 -50 -75 -35 -13 9 -22 26 -22 42 -1 15 -7 38 -15 52 -11
19 -14 64 -15 175 0 128 3 154 18 178 35 52 79 86 227 169 32 19 75 24 75 9z
m70 -35 c0 -8 -13 -34 -28 -58 -65 -100 -63 -230 4 -315 19 -23 34 -46 34 -51
0 -29 -89 -21 -133 12 -15 11 -39 45 -53 75 -31 65 -29 124 8 200 40 82 168
187 168 137z m225 -55 c9 -22 41 -63 69 -93 90 -92 119 -185 81 -258 -14 -28
-20 -30 -69 -30 -46 0 -59 4 -83 28 -44 45 -67 130 -66 242 3 146 31 192 68
111z m75 19 c0 -5 4 -10 9 -10 21 0 102 -63 138 -107 32 -39 38 -53 41 -108 5
-69 -10 -130 -34 -139 -25 -9 -35 3 -23 26 16 30 6 109 -20 159 -13 24 -50 69
-82 99 -57 54 -75 90 -44 90 8 0 15 -4 15 -10z m-779 -317 c0 -38 5 -90 10
-118 6 -27 13 -70 16 -95 3 -24 11 -53 18 -65 26 -40 27 -78 3 -125 -40 -79
-39 -81 -94 207 -12 65 -13 94 -4 145 19 110 21 118 36 118 11 0 14 -16 15
-67z m1311 -18 c13 -29 -1 -179 -27 -290 -9 -38 -19 -85 -22 -103 -7 -41 -16
-46 -38 -22 -31 34 -36 88 -14 152 10 31 19 66 19 76 0 10 5 23 10 28 6 6 13
50 17 97 5 76 8 87 25 87 10 0 23 -11 30 -25z m-527 -124 c73 -7 101 -16 177
-57 14 -8 59 -47 100 -87 53 -52 83 -91 107 -142 18 -38 39 -83 47 -98 8 -16
14 -40 14 -53 0 -14 7 -35 15 -48 13 -19 14 -43 6 -157 -12 -167 -27 -277 -39
-292 -5 -7 -13 -26 -16 -44 -4 -17 -25 -52 -47 -76 -43 -50 -49 -76 -19 -84
11 -3 20 -7 20 -10 0 -24 -29 -107 -53 -152 -17 -31 -36 -67 -43 -80 -38 -71
-289 -271 -341 -271 -12 0 -25 -4 -28 -10 -8 -12 -112 -13 -119 -1 -3 5 -17
12 -31 15 -23 6 -110 55 -143 81 -107 82 -223 219 -238 280 -4 16 -13 40 -20
54 -8 14 -14 33 -14 41 0 9 -5 21 -11 27 -7 7 -2 15 15 27 31 20 33 41 7 55
-23 13 -57 70 -78 130 -20 59 -32 134 -45 294 -9 108 -9 133 4 165 9 20 24 64
34 97 37 123 94 209 187 285 34 27 68 55 75 61 31 25 138 49 226 50 50 1 100
5 111 10 11 4 29 6 40 3 11 -3 56 -9 100 -13z m-872 -61 c12 -104 34 -227 46
-248 7 -13 15 -53 18 -90 4 -54 2 -70 -10 -80 -20 -17 -29 -1 -47 78 -7 30
-17 66 -23 80 -12 29 -23 281 -13 306 10 26 23 5 29 -46z m1467 -67 c-1 -54
-5 -118 -11 -143 -5 -25 -14 -65 -19 -90 -15 -71 -34 -127 -45 -130 -5 -1 -15
17 -22 39 -12 41 -11 43 23 166 20 75 44 196 44 228 0 17 5 27 15 27 12 0 15
-17 15 -97z m-1269 -6 c-1 -12 -15 -9 -19 4 -3 6 1 10 8 8 6 -3 11 -8 11 -12z
m1277 -459 c15 -15 16 -54 2 -63 -5 -3 -10 -12 -10 -20 0 -8 -5 -26 -12 -42
-27 -66 -47 -129 -48 -147 0 -25 -38 -126 -56 -150 -11 -16 -17 -17 -26 -8
-10 10 -9 18 3 40 20 34 45 140 60 255 9 68 17 95 36 118 28 32 34 34 51 17z
m-1468 -8 c19 -10 27 -37 35 -110 12 -108 44 -242 66 -278 11 -17 11 -24 1
-34 -20 -20 -39 9 -63 92 -11 41 -27 90 -35 108 -8 18 -14 41 -14 50 0 10 -4
22 -9 28 -10 10 -31 103 -31 134 0 22 21 26 50 10z m1116 -1107 c-1 -215 -1
-219 23 -258 14 -22 48 -62 75 -88 50 -47 154 -117 174 -117 6 0 12 -3 14 -7
5 -12 93 -53 111 -53 9 0 19 -4 22 -10 3 -5 16 -10 28 -10 13 0 31 -6 42 -14
36 -24 184 -54 277 -55 31 -1 59 -5 62 -10 3 -4 36 -11 73 -14 37 -3 82 -13
98 -21 17 -9 36 -16 43 -16 23 0 90 -49 125 -92 38 -47 77 -115 77 -135 0 -8
4 -21 9 -31 14 -29 52 -195 51 -230 0 -18 5 -42 11 -54 6 -11 15 -75 19 -141
5 -67 16 -198 25 -292 8 -93 17 -192 20 -220 8 -88 15 -167 26 -270 5 -55 14
-179 20 -275 5 -96 11 -193 13 -215 2 -22 6 -110 10 -195 4 -85 11 -180 17
-210 5 -30 14 -116 19 -190 10 -150 22 -203 63 -272 15 -26 27 -54 27 -62 0
-9 5 -16 10 -16 6 0 10 -6 10 -13 0 -8 8 -43 19 -78 59 -203 62 -253 70 -1119
l6 -735 26 -50 c14 -27 36 -79 49 -115 13 -36 27 -69 32 -75 4 -5 8 -15 8 -23
0 -7 9 -32 19 -55 10 -23 30 -74 43 -113 l25 -71 -23 -132 c-12 -73 -25 -175
-29 -226 l-7 -92 -119 -124 c-65 -68 -142 -152 -171 -187 -30 -36 -59 -61 -68
-60 -21 4 -24 42 -6 80 9 17 16 36 16 41 0 24 44 57 75 57 56 0 105 78 105
167 0 26 5 66 11 88 9 30 8 57 -1 110 -7 38 -17 74 -22 80 -19 22 1 154 29
187 22 25 13 53 -17 53 -19 0 -30 -10 -48 -45 -22 -44 -22 -48 -16 -286 4
-133 4 -252 1 -266 -9 -33 -34 -42 -62 -24 -26 17 -42 114 -50 295 -3 63 -9
128 -14 145 -6 17 -20 63 -32 101 -27 83 -29 196 -5 266 9 26 19 69 22 95 4
27 11 57 16 68 12 23 11 200 -1 224 -5 9 -14 40 -19 67 -6 28 -17 75 -26 105
-8 30 -20 75 -27 100 -6 25 -15 53 -20 62 -5 10 -9 24 -9 33 0 16 -42 163 -59
208 -6 16 -11 41 -11 57 0 16 -4 31 -9 35 -6 3 -13 27 -17 53 -3 26 -10 52
-14 57 -3 6 -15 39 -24 75 -10 36 -27 94 -37 129 -10 35 -19 74 -19 86 0 11
-5 26 -11 32 -6 6 -15 29 -20 50 -4 21 -16 70 -24 108 -9 39 -23 99 -30 135
-7 36 -18 81 -24 100 -6 19 -11 49 -11 67 0 18 -4 42 -10 55 -9 22 -15 75 -45
398 -23 254 -35 364 -46 413 -6 26 -15 82 -19 125 -9 88 -26 197 -40 260 -6
23 -10 59 -10 80 0 20 -5 55 -11 77 -18 67 -20 156 -4 198 8 20 15 63 15 95 0
32 5 63 11 69 9 9 9 20 0 44 -6 17 -11 57 -11 87 0 56 -29 180 -56 239 -18 39
-18 117 -1 135 22 21 49 86 42 97 -3 6 -16 11 -28 11 -47 0 -116 -211 -77
-235 6 -3 10 -14 10 -23 0 -9 6 -29 14 -43 26 -51 48 -213 43 -321 -9 -181
-40 -259 -141 -360 -54 -54 -57 -56 -136 -95 -115 -58 -264 -83 -388 -66 -138
19 -193 38 -287 98 -50 32 -145 121 -145 137 0 14 -50 8 -56 -7 -18 -45 181
-199 331 -256 56 -21 162 -39 231 -39 71 0 199 22 234 40 9 4 29 11 45 14 17
4 52 22 80 41 62 43 72 35 56 -42 -6 -32 -16 -84 -21 -116 -6 -32 -14 -67 -20
-77 -5 -10 -10 -33 -10 -50 0 -17 -8 -65 -19 -108 -29 -119 -40 -189 -47 -293
-6 -83 -4 -105 15 -167 13 -40 36 -99 52 -132 16 -33 29 -64 29 -69 0 -4 18
-41 39 -80 22 -39 43 -82 47 -94 3 -12 11 -27 16 -34 5 -7 38 -67 72 -135 34
-68 67 -132 73 -143 18 -34 86 -179 94 -200 4 -11 14 -36 23 -55 37 -84 56
-143 56 -168 0 -16 4 -32 10 -38 9 -9 16 -44 40 -199 6 -38 16 -79 22 -90 15
-27 22 -703 9 -865 -5 -69 -17 -168 -26 -220 -8 -52 -19 -124 -24 -160 -11
-82 -46 -273 -67 -365 -9 -38 -21 -101 -28 -140 -7 -38 -15 -77 -18 -85 -4 -8
-9 -34 -12 -58 -4 -24 -10 -51 -15 -60 -5 -9 -14 -44 -21 -77 -7 -33 -19 -89
-27 -125 -7 -36 -18 -85 -23 -110 -6 -25 -14 -54 -19 -65 -12 -25 -29 -92 -45
-170 -7 -33 -18 -73 -24 -88 -7 -16 -12 -37 -12 -47 0 -10 -4 -22 -10 -25 -5
-3 -10 -15 -10 -25 0 -10 -5 -31 -12 -47 -11 -26 -18 -52 -51 -183 -7 -30 -17
-62 -20 -70 -13 -28 -46 -205 -67 -350 -5 -36 -14 -87 -19 -115 -6 -27 -14
-149 -17 -270 -6 -204 -5 -226 15 -302 11 -45 21 -96 21 -113 0 -17 5 -40 10
-50 10 -19 19 -99 42 -372 9 -117 9 -173 -1 -280 -7 -73 -16 -171 -21 -218 -4
-47 -12 -96 -19 -107 -6 -12 -11 -38 -11 -59 0 -37 -34 -235 -50 -289 -5 -16
-12 -57 -16 -90 -4 -33 -10 -64 -14 -70 -4 -5 -10 -31 -13 -57 -4 -26 -11 -56
-16 -65 -8 -17 -21 -77 -45 -208 -6 -33 -14 -64 -17 -70 -4 -5 -10 -26 -13
-45 -4 -19 -11 -44 -15 -55 -5 -11 -18 -65 -31 -120 -12 -55 -25 -107 -30
-116 -5 -9 -12 -34 -16 -55 -3 -22 -10 -43 -14 -49 -5 -5 -11 -28 -15 -50 -4
-22 -10 -44 -14 -50 -3 -5 -11 -32 -18 -60 -6 -27 -19 -77 -28 -110 -25 -91
-45 -183 -56 -254 -5 -36 -13 -69 -19 -75 -14 -14 -13 -209 2 -224 6 -6 13
-52 15 -104 2 -51 8 -104 13 -118 5 -14 11 -59 15 -100 3 -41 10 -95 15 -120
10 -50 38 -241 53 -370 13 -113 13 -414 0 -468 -13 -53 -48 -92 -111 -121 -26
-12 -54 -26 -62 -30 -8 -4 -49 -18 -90 -30 -41 -12 -82 -26 -90 -30 -8 -4 -46
-14 -83 -21 -59 -12 -72 -12 -94 0 -46 27 -87 175 -85 310 1 87 17 252 30 320
6 30 21 123 32 205 12 83 25 166 30 185 23 92 33 251 21 348 -9 73 -9 109 -1
147 6 28 15 83 20 122 5 40 13 87 18 105 18 56 22 186 12 348 -18 290 -37 535
-44 550 -3 8 -11 65 -17 125 -5 61 -14 151 -19 200 -27 276 -32 363 -37 590
-5 243 0 351 38 725 20 204 31 328 31 365 2 58 -14 208 -22 220 -7 10 -25 283
-35 540 -9 215 -15 319 -26 450 -6 66 -15 206 -20 310 -5 105 -13 231 -18 280
-12 119 -12 863 0 940 5 33 14 92 18 130 9 70 27 150 58 255 17 59 20 67 46
118 9 19 17 38 17 44 0 12 68 127 87 146 7 7 13 19 13 27 0 7 7 15 15 19 8 3
15 12 15 21 0 8 5 15 10 15 6 0 10 7 10 15 0 20 -50 32 -61 14 -4 -8 -13 -21
-19 -29 -6 -9 -35 -54 -63 -100 -51 -82 -61 -91 -139 -124 -46 -20 -114 -20
-152 -1 -15 8 -34 15 -41 15 -24 0 -71 48 -99 101 -15 29 -43 74 -63 101 -29
40 -39 47 -57 42 -11 -4 -22 -8 -24 -9 -5 -4 19 -45 51 -87 35 -46 147 -265
147 -287 0 -9 9 -45 21 -81 12 -36 25 -78 31 -95 5 -16 13 -73 18 -125 5 -52
14 -140 19 -195 13 -125 13 -594 0 -780 -5 -77 -13 -250 -18 -383 -6 -134 -14
-258 -20 -275 -5 -18 -12 -117 -15 -222 -12 -395 -28 -636 -56 -840 -14 -105
-12 -277 6 -437 8 -79 24 -222 35 -319 13 -123 19 -244 19 -405 0 -225 -6
-316 -35 -604 -8 -80 -20 -208 -26 -285 -6 -77 -15 -148 -20 -157 -5 -10 -9
-50 -9 -90 0 -40 -6 -116 -14 -168 -8 -52 -18 -187 -21 -300 -6 -174 -4 -216
10 -280 9 -41 19 -101 22 -133 3 -31 9 -60 14 -63 11 -7 12 -265 0 -282 -4 -7
-4 -30 0 -50 5 -20 13 -82 18 -137 6 -55 17 -138 25 -185 8 -47 21 -129 29
-182 9 -54 18 -102 21 -107 4 -5 11 -82 17 -170 17 -263 -8 -412 -77 -458 -23
-15 -33 -15 -87 -4 -72 15 -149 37 -194 57 -17 8 -35 14 -40 14 -6 0 -42 16
-82 36 -80 41 -121 82 -121 123 0 15 -6 33 -12 39 -17 17 -17 262 -1 357 21
124 44 287 53 385 14 141 28 251 39 290 6 19 12 67 15 107 3 40 10 81 16 93
25 46 3 259 -45 435 -9 33 -20 83 -25 110 -10 55 -37 150 -52 178 -5 10 -13
37 -18 60 -22 103 -60 240 -79 290 -6 16 -11 41 -11 56 0 15 -3 31 -8 35 -4 4
-12 33 -19 64 -6 31 -19 84 -28 117 -9 33 -22 92 -29 130 -7 39 -15 77 -19 85
-6 15 -19 74 -38 179 -5 30 -13 59 -16 64 -3 6 -12 47 -19 91 -7 45 -23 137
-34 206 -12 69 -26 157 -31 195 -4 39 -12 97 -18 130 -13 81 -13 362 0 455 6
41 14 111 18 155 4 44 13 100 19 125 40 159 52 275 48 460 -4 175 -31 418 -56
500 -5 19 -10 49 -10 67 0 17 -4 34 -9 37 -4 3 -11 33 -15 65 -4 33 -11 63
-15 65 -5 3 -11 29 -15 57 -4 28 -11 58 -16 67 -14 29 -50 147 -50 169 0 11
-3 23 -7 27 -5 4 -13 29 -19 54 -7 26 -23 88 -37 137 -13 50 -32 126 -42 170
-10 44 -22 89 -26 100 -10 21 -21 74 -44 195 -7 41 -19 91 -24 110 -6 19 -11
49 -11 67 0 17 -4 34 -9 37 -5 3 -12 32 -16 63 -4 32 -10 63 -15 68 -4 6 -10
41 -13 79 -4 37 -11 82 -16 100 -12 37 -41 212 -52 311 -48 434 -51 478 -46
740 4 264 19 472 36 518 6 16 11 43 11 60 1 31 39 192 51 212 4 6 10 27 13 49
4 21 11 46 16 55 22 42 70 149 70 157 0 5 13 34 29 64 15 30 38 75 50 100 13
25 28 54 34 65 6 11 52 103 104 204 51 101 97 189 103 195 5 5 10 17 10 26 1
8 9 33 20 55 11 22 19 47 20 55 0 9 4 20 9 25 15 15 34 95 34 140 0 50 -22
205 -31 219 -4 6 -12 38 -18 71 -6 33 -21 105 -34 160 -12 55 -25 120 -27 145
-3 25 -9 50 -15 57 -14 17 -22 119 -11 126 6 4 25 -5 43 -18 19 -14 40 -25 47
-25 7 0 13 -4 13 -8 0 -9 77 -35 171 -57 111 -26 284 -14 374 25 11 5 31 12
44 15 41 12 134 72 202 132 71 62 96 94 85 112 -8 12 -56 15 -56 4 0 -12 -61
-76 -105 -110 -51 -39 -145 -86 -215 -108 -127 -39 -348 -25 -467 30 -17 8
-36 15 -42 15 -6 0 -11 4 -11 8 0 5 -19 18 -42 30 -115 57 -210 228 -221 397
-8 119 12 257 49 342 8 17 14 40 14 51 0 12 5 24 10 27 14 9 13 88 -2 122 -30
68 -58 103 -83 103 -40 0 -40 -25 -1 -76 31 -40 36 -55 36 -98 0 -28 -6 -60
-14 -71 -7 -11 -17 -36 -21 -55 -4 -19 -11 -40 -16 -46 -14 -17 -29 -141 -29
-240 0 -96 15 -201 32 -221 7 -9 7 -33 -1 -75 -15 -88 -30 -196 -42 -313 -6
-55 -15 -108 -20 -117 -5 -10 -9 -39 -9 -65 0 -27 -7 -75 -14 -108 -8 -33 -17
-94 -21 -135 -4 -41 -10 -91 -15 -110 -5 -19 -12 -109 -15 -200 -4 -91 -10
-169 -13 -175 -3 -5 -12 -55 -19 -110 -28 -213 -33 -247 -43 -265 -6 -10 -10
-31 -10 -47 0 -15 -12 -68 -26 -118 -15 -49 -32 -115 -38 -145 -7 -30 -15 -62
-18 -70 -17 -47 -48 -157 -48 -172 0 -9 -4 -19 -9 -23 -6 -3 -13 -27 -16 -53
-7 -48 -18 -89 -40 -152 -21 -61 -45 -143 -55 -190 -12 -58 -31 -130 -41 -155
-4 -11 -11 -36 -15 -55 -3 -19 -10 -41 -14 -50 -4 -8 -18 -58 -30 -110 -12
-52 -29 -117 -38 -143 -16 -51 -12 -158 7 -220 58 -183 66 -298 31 -417 -13
-41 -26 -79 -30 -85 -11 -15 -20 -115 -21 -235 0 -58 -5 -118 -9 -135 -5 -16
-12 -42 -15 -56 -5 -30 -38 -44 -65 -29 -26 14 -29 54 -17 295 9 215 9 221
-12 267 -21 47 -52 74 -71 63 -13 -8 -13 -38 1 -52 15 -15 31 -87 32 -138 0
-22 -7 -67 -17 -100 -12 -40 -15 -77 -11 -110 3 -27 9 -84 13 -127 6 -64 12
-82 38 -115 23 -28 41 -39 67 -43 36 -5 55 -23 88 -85 14 -26 17 -48 10 -87
-3 -20 -32 -3 -67 40 -33 40 -89 100 -245 261 -46 47 -59 82 -68 186 -5 55
-17 136 -26 180 -9 44 -19 94 -22 112 -5 30 13 93 44 153 7 14 13 33 13 42 0
9 4 20 10 23 5 3 10 13 10 22 0 8 6 29 14 46 8 18 31 75 51 127 19 52 40 104
45 115 5 11 12 31 17 45 4 14 8 327 8 695 0 646 11 959 33 1002 5 10 13 44 16
75 4 32 11 60 16 63 4 3 11 17 14 32 4 16 26 69 50 118 58 119 64 144 75 325
5 85 10 162 11 170 0 8 5 96 10 195 5 98 11 193 14 210 3 16 10 100 16 185 5
85 14 196 20 245 6 50 15 158 20 240 21 326 30 426 40 444 5 11 10 48 10 83 0
35 5 90 10 123 42 275 39 258 78 375 25 75 89 164 142 198 27 18 55 32 62 32
8 0 23 7 34 14 20 14 82 24 284 46 100 11 188 32 232 56 14 8 33 14 42 14 23
0 159 60 164 73 2 4 9 7 16 7 38 0 205 138 246 205 24 39 25 46 25 215 0 96
-3 190 -7 208 -13 56 14 51 89 -18 138 -127 268 -180 382 -158 31 6 58 14 61
17 3 3 23 15 44 26 22 11 44 25 50 30 6 6 27 20 46 32 20 12 57 45 84 72 26
28 51 51 55 51 5 0 8 -98 7 -217z m1361 -6509 c-9 -9 -28 6 -21 18 4 6 10 6
17 -1 6 -6 8 -13 4 -17z m23 -43 c0 -13 -73 -81 -87 -81 -25 0 -24 23 3 52 40
42 84 57 84 29z m-3623 -5 c7 -12 81 -100 109 -130 6 -6 19 -33 29 -59 13 -36
15 -51 7 -59 -9 -9 -29 5 -79 53 -38 36 -80 74 -95 83 -23 15 -28 26 -28 56 0
53 38 90 57 56z m120 -18 c32 -31 45 -78 22 -78 -13 0 -99 89 -99 102 0 20 47
5 77 -24z m3585 5 c10 -9 18 -30 18 -47 0 -26 -12 -41 -71 -91 -122 -103 -119
-101 -129 -86 -13 22 17 89 63 141 101 115 91 108 119 83z"/>
<path d="M2643 16077 c-42 -15 -76 -45 -67 -58 6 -11 13 -10 109 10 84 19 154
4 266 -55 60 -31 69 -30 69 4 0 28 -11 36 -100 76 -77 34 -214 46 -277 23z"/>
<path d="M3435 16079 c-56 -13 -185 -77 -185 -92 0 -7 4 -19 10 -27 7 -12 19
-9 72 17 113 56 177 69 254 52 78 -17 124 -22 124 -13 -3 56 -154 91 -275 63z"/>
<path d="M2724 15926 c-113 -25 -135 -71 -56 -122 64 -42 156 -59 225 -44 102
23 114 42 63 93 -49 49 -78 63 -166 81 -8 2 -38 -2 -66 -8z m114 -48 c26 -26
7 -78 -28 -78 -9 0 -27 12 -41 26 l-24 26 24 19 c27 22 52 24 69 7z m-127 -31
c-1 -12 -15 -9 -19 4 -3 6 1 10 8 8 6 -3 11 -8 11 -12z"/>
<path d="M3425 15922 c-41 -15 -81 -41 -107 -71 -49 -54 -36 -73 59 -90 91
-17 184 1 241 46 23 19 42 43 42 53 0 35 -52 60 -137 65 -43 2 -87 1 -98 -3z
m79 -48 c20 -19 20 -24 0 -52 -21 -31 -56 -25 -68 10 -17 48 32 78 68 42z m81
-34 c-5 -8 -11 -8 -17 -2 -6 6 -7 16 -3 22 5 8 11 8 17 2 6 -6 7 -16 3 -22z"/>
<path d="M3001 15551 c-25 -25 -35 -74 -21 -101 16 -29 43 -21 50 15 4 17 12
40 19 53 25 46 -11 70 -48 33z"/>
<path d="M3224 15559 c-6 -11 9 -77 26 -109 4 -8 16 -15 26 -15 30 0 32 80 3
111 -24 26 -44 30 -55 13z"/>
<path d="M3135 15472 c-59 -4 -71 -12 -56 -40 22 -41 112 -36 124 7 7 28 -10
37 -68 33z"/>
<path d="M3025 15319 c-33 -8 -92 -28 -115 -39 -8 -4 -16 -17 -18 -29 -3 -17
3 -22 27 -27 18 -4 34 -11 37 -15 3 -5 26 -9 51 -9 25 0 67 -8 93 -17 44 -16
49 -16 83 0 19 9 58 17 85 17 28 0 54 5 57 10 3 6 14 10 24 10 10 0 24 6 30
14 17 21 -3 56 -32 56 -12 0 -35 7 -52 16 -33 17 -216 26 -270 13z m115 -50
c14 0 43 3 66 7 33 5 42 2 47 -10 7 -18 3 -20 -64 -34 -55 -11 -169 5 -169 23
0 21 14 27 55 20 22 -3 51 -6 65 -6z"/>
<path d="M2987 15163 c-4 -3 -7 -14 -7 -24 0 -40 131 -96 184 -79 17 5 42 12
56 14 30 6 80 51 80 72 0 28 -28 26 -71 -5 -32 -23 -53 -31 -86 -31 -44 0
-123 32 -123 50 0 11 -23 13 -33 3z"/>
<path d="M2258 14219 c-38 -22 -15 -49 41 -49 15 0 33 -6 40 -12 9 -10 68 -13
234 -11 209 2 225 1 267 -20 25 -12 57 -34 73 -49 32 -33 77 -38 77 -9 0 25
-54 69 -133 109 l-62 32 -245 3 c-135 1 -252 6 -260 9 -8 4 -23 3 -32 -3z"/>
<path d="M3965 14220 c-11 -5 -124 -9 -252 -9 l-232 -1 -61 -32 c-79 -42 -130
-85 -130 -109 0 -30 42 -24 75 11 16 17 34 30 40 30 5 0 28 10 50 21 38 20 50
21 195 16 148 -6 243 0 338 21 52 12 59 18 46 40 -13 20 -41 25 -69 12z"/>
<path d="M3235 14110 c-3 -5 -14 -10 -24 -10 -10 0 -24 -7 -31 -15 -16 -19
-59 -19 -79 -1 -9 8 -28 18 -43 21 -44 11 -49 -21 -10 -57 28 -24 41 -28 91
-28 49 0 65 4 90 26 30 25 40 57 22 69 -5 3 -12 1 -16 -5z"/>
<path d="M1355 11650 c-7 -12 12 -78 28 -98 6 -7 12 -60 15 -118 4 -91 7 -107
25 -119 30 -21 47 -2 47 54 0 60 -35 217 -57 259 -17 31 -46 42 -58 22z"/>
<path d="M4871 11633 c-59 -126 -82 -333 -37 -333 29 0 49 38 43 82 -7 49 8
140 30 183 18 37 14 89 -8 93 -9 2 -21 -9 -28 -25z"/>
<path d="M3137 11023 c-13 -12 -7 -37 14 -59 26 -28 19 -54 -15 -54 -19 0 -27
-7 -32 -26 -8 -31 7 -44 53 -44 35 0 73 41 73 80 0 56 -66 130 -93 103z"/>
<path d="M2233 6215 c-9 -26 5 -90 33 -143 41 -80 156 -151 185 -115 15 17 11
21 -71 76 -52 34 -66 49 -72 77 -24 100 -58 148 -75 105z"/>
<path d="M4007 6223 c-4 -3 -7 -19 -7 -34 0 -53 -78 -169 -114 -169 -20 0 -69
-46 -62 -58 14 -23 66 -13 110 21 78 57 131 165 111 227 -6 20 -25 26 -38 13z"/>
<path d="M3435 6089 c-5 -16 2 -30 26 -55 65 -67 141 -98 178 -75 21 14 1 34
-57 59 -26 11 -61 37 -79 56 -36 41 -59 46 -68 15z"/>
<path d="M2772 6071 c-12 -17 -49 -42 -82 -57 -68 -31 -78 -57 -23 -62 58 -6
192 93 177 131 -10 27 -48 20 -72 -12z"/>
<path d="M10695 17554 c-22 -10 -66 -13 -160 -11 -155 2 -194 -10 -267 -84
-61 -63 -77 -126 -58 -229 7 -39 19 -75 27 -81 7 -6 13 -17 13 -24 0 -7 7 -18
16 -25 25 -22 13 -61 -26 -81 -54 -29 -68 -40 -135 -102 -66 -61 -149 -175
-160 -220 -4 -15 -11 -27 -16 -27 -5 0 -9 -8 -9 -18 0 -10 -6 -26 -13 -37 -38
-56 -51 -225 -28 -375 12 -79 19 -101 59 -185 20 -43 13 -69 -20 -73 -41 -5
-63 -37 -61 -91 0 -25 8 -59 17 -76 9 -16 16 -35 16 -41 0 -7 7 -25 15 -40 8
-16 15 -37 15 -46 0 -9 4 -19 9 -22 5 -3 12 -26 16 -51 11 -79 64 -175 95
-175 31 0 50 -11 50 -29 0 -42 43 -177 77 -238 l36 -68 7 -185 c4 -102 5 -220
2 -262 -6 -89 -25 -120 -121 -191 -53 -40 -215 -127 -236 -127 -5 0 -22 -6
-37 -14 -15 -8 -42 -17 -60 -21 -18 -3 -42 -10 -53 -15 -31 -13 -129 -29 -260
-41 -255 -23 -389 -108 -468 -299 -32 -76 -49 -133 -58 -188 -25 -153 -41
-277 -49 -380 -5 -63 -11 -121 -15 -130 -7 -19 -31 -308 -46 -552 -5 -91 -14
-184 -19 -208 -6 -23 -10 -79 -11 -125 0 -45 -5 -122 -10 -172 -5 -49 -13
-171 -19 -270 -5 -99 -16 -252 -24 -340 -14 -154 -16 -163 -53 -235 -35 -68
-58 -124 -93 -233 -41 -129 -50 -324 -48 -1047 0 -360 1 -668 1 -683 0 -15 -5
-38 -10 -50 -6 -12 -20 -49 -33 -82 -29 -80 -39 -105 -56 -138 -8 -16 -14 -34
-14 -40 -1 -7 -9 -30 -20 -52 -11 -22 -19 -48 -20 -57 0 -9 -4 -19 -9 -23 -5
-3 -12 -19 -16 -36 -4 -17 -13 -42 -21 -57 -18 -35 -18 -132 1 -179 15 -38 24
-93 47 -267 7 -54 18 -96 27 -106 255 -267 285 -300 321 -353 44 -66 100 -65
116 3 12 50 39 64 67 36 9 -9 20 -16 26 -16 5 0 14 -6 18 -14 11 -18 35 -25
55 -14 15 7 17 23 13 141 -3 72 -6 141 -8 152 -16 100 -59 154 -131 162 -68 8
-70 14 -52 154 9 67 20 127 25 133 5 6 12 32 16 59 4 26 11 49 15 52 18 11 23
134 7 182 -8 27 -18 68 -22 93 -4 25 -14 69 -22 99 -17 60 -14 240 4 263 6 7
13 33 17 58 7 45 31 137 47 175 4 11 11 38 14 60 4 22 10 45 15 50 4 6 10 26
13 45 7 43 35 148 47 175 8 18 16 48 39 156 4 19 11 41 15 48 5 7 14 36 21 64
52 206 68 263 76 271 5 6 9 21 9 33 0 13 6 36 14 51 7 15 16 43 19 62 3 19 15
78 27 130 44 192 72 400 89 656 5 72 16 169 24 215 13 73 33 198 52 334 3 22
10 75 15 119 5 43 14 95 20 115 5 20 10 68 10 108 0 39 4 74 9 77 14 9 42 -41
51 -92 4 -26 18 -83 30 -127 11 -44 23 -91 26 -105 3 -14 10 -34 15 -45 5 -11
13 -47 19 -80 5 -33 17 -91 25 -130 18 -85 43 -204 55 -265 16 -81 11 -144
-16 -216 -14 -38 -31 -84 -37 -101 -5 -18 -14 -33 -19 -33 -4 0 -8 -6 -8 -13
0 -7 -75 -164 -167 -348 -93 -184 -173 -348 -180 -365 -38 -91 -67 -176 -80
-229 -7 -33 -20 -87 -29 -120 -51 -207 -69 -391 -68 -720 1 -307 27 -645 55
-697 5 -10 9 -35 9 -55 0 -21 5 -56 11 -78 6 -22 17 -83 25 -135 19 -127 39
-229 53 -263 6 -16 11 -43 11 -62 0 -19 4 -36 9 -39 4 -3 11 -33 14 -66 3 -33
9 -66 15 -73 5 -7 12 -36 16 -66 4 -30 12 -63 17 -73 6 -11 14 -40 19 -66 14
-70 36 -165 42 -182 3 -8 16 -53 28 -100 13 -47 29 -104 36 -128 8 -23 14 -51
14 -62 0 -10 4 -21 9 -24 4 -3 11 -24 15 -46 3 -23 11 -49 17 -58 10 -17 51
-170 71 -267 6 -27 14 -59 19 -70 7 -19 18 -84 40 -250 5 -38 12 -86 15 -105
24 -141 31 -436 13 -505 -38 -143 -69 -380 -79 -604 -9 -198 -3 -321 24 -506
8 -55 21 -148 29 -206 8 -59 17 -111 21 -117 3 -6 10 -36 16 -69 5 -32 16 -89
24 -128 9 -38 20 -97 26 -130 6 -33 15 -68 20 -77 6 -10 10 -27 10 -38 0 -11
9 -53 20 -92 11 -40 20 -87 20 -105 0 -17 4 -34 9 -38 6 -3 13 -27 17 -53 3
-26 10 -51 14 -57 4 -5 11 -28 15 -50 4 -22 10 -44 13 -50 4 -5 12 -35 19 -65
22 -106 35 -155 43 -165 5 -5 11 -28 15 -50 4 -22 11 -45 16 -50 4 -6 11 -34
15 -63 4 -29 11 -55 15 -58 5 -3 9 -14 9 -24 0 -11 7 -40 16 -66 15 -45 22
-78 44 -199 33 -191 34 -195 21 -258 -7 -34 -16 -102 -21 -152 -15 -146 -27
-236 -39 -305 -22 -130 -32 -207 -42 -315 -5 -60 -14 -120 -19 -133 -13 -31
-13 -379 0 -387 6 -3 10 -19 10 -35 0 -70 48 -123 160 -177 41 -19 82 -39 90
-43 9 -4 31 -11 50 -15 19 -4 41 -11 50 -15 45 -22 142 -45 191 -45 51 0 59 3
93 37 20 20 36 39 36 43 0 4 6 21 14 38 35 81 49 242 34 379 -29 251 -54 432
-71 508 -14 61 -13 69 5 117 16 43 19 70 15 140 -5 86 -24 185 -40 211 -25 38
-58 342 -57 522 0 225 37 768 58 860 5 25 13 92 17 150 3 58 10 121 15 140 5
19 12 130 15 245 3 116 8 237 10 270 10 128 -39 801 -64 892 -16 56 -13 231 4
313 8 39 18 110 21 158 3 48 9 98 14 112 5 14 11 174 15 355 3 182 10 348 15
370 5 22 10 96 10 165 0 69 5 163 10 208 6 46 12 131 13 190 1 59 6 113 11
121 19 29 26 -17 26 -169 0 -85 6 -195 13 -245 7 -49 14 -142 15 -205 2 -108
9 -251 33 -685 5 -99 16 -234 25 -300 23 -184 27 -284 15 -355 -26 -160 -71
-712 -70 -880 0 -183 57 -912 73 -939 4 -6 11 -80 17 -164 5 -83 13 -180 18
-214 13 -90 13 -587 0 -658 -5 -33 -14 -91 -18 -130 -4 -38 -13 -86 -19 -105
-40 -123 -47 -161 -47 -250 0 -72 5 -104 18 -133 18 -38 18 -41 -2 -130 -11
-51 -25 -128 -31 -172 -6 -44 -16 -114 -22 -155 -6 -41 -13 -145 -16 -230 -5
-220 23 -336 97 -402 33 -29 37 -30 98 -24 35 4 73 11 86 15 12 5 54 19 92 31
105 32 223 85 279 125 53 38 83 131 93 295 5 78 -2 153 -28 315 -5 33 -16 123
-24 200 -8 77 -19 158 -25 180 -5 22 -10 61 -10 87 0 26 -5 59 -11 75 -23 60
-48 355 -38 448 11 102 25 179 37 201 5 10 15 44 21 74 26 122 56 236 74 280
8 19 25 80 42 150 7 30 28 107 45 170 18 63 38 142 45 175 7 33 24 105 38 160
46 190 57 243 57 273 0 17 5 34 10 37 6 3 10 18 10 32 0 15 6 52 14 82 18 71
45 217 56 312 5 41 17 119 26 174 20 120 30 513 15 565 -5 19 -15 76 -21 125
-25 217 -30 252 -40 279 -23 66 -30 204 -20 392 6 104 12 200 14 214 2 14 9
54 15 90 6 36 11 82 11 103 0 20 4 45 9 55 5 9 13 40 19 67 16 80 64 270 86
340 9 28 21 70 27 95 6 25 15 54 19 65 4 11 14 45 23 75 9 30 23 79 32 108 16
55 29 111 45 193 5 26 13 55 18 65 5 11 17 53 26 94 9 41 25 115 36 163 11 49
20 99 20 112 0 13 4 26 9 29 4 3 11 30 15 61 3 31 10 63 15 73 5 9 21 91 36
182 15 91 34 201 42 245 8 44 18 125 24 180 5 55 13 111 19 125 5 14 12 135
15 270 7 330 -14 668 -50 796 -8 28 -15 61 -15 73 0 11 -4 29 -9 39 -5 9 -19
55 -31 102 -23 89 -37 131 -75 215 -40 89 -126 269 -145 305 -72 131 -250 501
-250 518 0 5 -7 23 -15 38 -18 35 -20 217 -4 279 6 22 17 72 24 110 8 39 18
88 24 110 6 22 11 54 11 71 0 18 7 45 15 60 8 16 15 41 15 56 0 15 5 30 10 33
6 3 10 17 10 29 0 13 6 46 14 72 8 27 19 72 26 99 21 93 25 106 35 106 11 0
18 -37 39 -201 8 -63 17 -122 20 -130 4 -9 11 -54 16 -100 5 -47 16 -128 25
-180 28 -172 47 -359 61 -575 3 -55 10 -115 16 -134 6 -19 14 -59 19 -90 11
-81 28 -163 38 -186 5 -11 13 -47 19 -80 10 -61 32 -145 51 -200 5 -16 17 -57
26 -90 9 -33 22 -80 29 -105 8 -25 21 -72 30 -105 10 -33 24 -82 32 -109 7
-26 14 -59 14 -72 0 -12 4 -25 9 -28 4 -3 11 -24 15 -46 3 -23 10 -49 15 -58
10 -17 39 -133 48 -187 3 -16 9 -35 14 -40 4 -6 11 -31 15 -55 4 -25 11 -47
15 -50 4 -3 12 -30 18 -60 5 -30 17 -87 25 -127 12 -56 13 -92 6 -161 -5 -49
-14 -100 -19 -113 -4 -13 -12 -48 -16 -76 -4 -29 -11 -55 -16 -59 -12 -7 -12
-167 1 -180 5 -5 14 -30 19 -54 6 -25 16 -72 24 -105 8 -33 20 -95 26 -138 14
-90 7 -107 -41 -107 -43 0 -90 -25 -115 -63 -30 -44 -43 -128 -43 -273 0 -142
7 -153 72 -108 21 15 41 31 44 36 3 4 16 8 28 8 20 0 25 -6 30 -44 4 -26 13
-47 22 -50 37 -14 60 -5 92 36 41 53 163 187 263 289 83 84 83 85 100 229 6
47 19 123 30 170 30 134 21 230 -30 320 -5 9 -12 30 -15 48 -4 17 -12 34 -17
37 -5 4 -9 14 -9 23 0 9 -6 29 -14 43 -7 15 -23 55 -35 90 -12 35 -28 78 -35
94 -8 17 -19 41 -25 55 -8 18 -10 143 -6 450 2 234 5 454 5 490 1 36 -3 198
-8 360 -9 296 -25 440 -58 517 -8 17 -14 36 -14 41 0 6 -6 23 -14 39 -18 35
-71 148 -87 188 -8 17 -17 89 -20 160 -12 215 -28 444 -39 550 -6 55 -13 163
-16 240 -3 77 -10 147 -14 155 -4 8 -10 94 -14 190 -4 96 -11 200 -17 231 -5
31 -14 112 -19 180 -9 114 -23 249 -49 484 -11 92 -37 224 -52 260 -58 140
-71 166 -108 209 -52 59 -59 64 -158 114 -43 22 -135 43 -233 52 -130 12 -240
29 -261 40 -9 5 -33 12 -53 15 -20 4 -39 11 -42 16 -3 5 -13 9 -22 9 -29 0
-205 92 -270 141 -123 92 -125 101 -120 386 l4 228 42 84 c23 46 42 92 42 102
0 10 5 21 10 24 6 3 10 22 10 41 0 19 7 50 14 69 12 28 20 35 43 35 18 0 33 8
43 23 30 47 50 92 56 126 3 20 9 45 14 56 4 11 18 49 31 85 12 36 26 70 32 77
5 7 10 42 10 78 2 59 -1 69 -22 86 -14 12 -31 17 -42 14 -27 -9 -29 34 -3 83
7 15 14 35 14 44 0 9 5 20 10 23 6 3 10 21 10 38 0 18 7 57 15 87 16 59 21
245 6 254 -4 3 -11 23 -15 45 -5 36 -28 90 -78 185 -12 22 -25 45 -29 50 -5 6
-28 36 -52 66 -46 59 -179 167 -212 172 -28 4 -31 38 -6 57 11 9 32 38 46 64
20 39 25 62 25 122 0 41 -4 77 -10 80 -5 3 -10 15 -10 26 0 11 -24 44 -52 73
-77 79 -172 116 -288 115 -36 0 -78 -7 -95 -15z m-188 -59 c1 -5 -16 -18 -40
-28 -78 -32 -167 -145 -167 -213 0 -18 -8 -38 -20 -49 -20 -18 -20 -17 -22 26
-4 118 10 167 61 209 62 51 178 85 188 55z m451 -16 c24 -12 61 -39 82 -60 44
-43 55 -89 48 -188 -3 -50 -10 -66 -53 -124 -27 -37 -52 -67 -57 -67 -14 0
-25 35 -32 99 -7 62 -19 88 -82 182 -29 43 -136 99 -188 99 -19 0 -41 3 -50 6
-21 8 -20 43 2 50 9 3 31 13 47 21 46 22 226 11 283 -18z m-413 -62 c6 -20 54
-57 76 -57 21 0 71 -47 98 -90 61 -99 72 -184 42 -324 -15 -68 -34 -86 -90
-86 -94 1 -194 50 -273 132 l-58 60 0 100 c0 85 3 105 24 146 56 109 166 181
181 119z m236 -79 c68 -51 128 -192 130 -309 1 -65 -1 -74 -22 -91 -30 -23
-68 -33 -79 -22 -6 6 -3 28 6 54 20 57 14 191 -10 235 -9 17 -16 34 -16 38 0
5 -14 28 -31 52 -17 24 -28 48 -25 54 10 15 12 14 47 -11z m-443 -365 c2 -17
-7 -26 -45 -45 -66 -32 -192 -160 -225 -228 -24 -51 -56 -228 -44 -248 2 -4 7
-43 11 -87 4 -44 10 -86 14 -95 10 -20 31 -153 31 -205 1 -22 -2 -71 -6 -108
-6 -61 -9 -68 -28 -65 -16 2 -24 17 -39 78 -10 41 -22 89 -27 105 -5 17 -14
50 -20 75 -7 25 -16 55 -22 67 -15 30 -16 294 -2 324 7 13 24 56 38 96 47 125
121 219 251 317 66 50 108 57 113 19z m726 18 c3 -5 30 -25 59 -44 65 -43 121
-98 165 -160 38 -53 102 -180 102 -201 0 -7 7 -27 15 -42 20 -38 22 -288 3
-282 -8 3 -16 33 -20 74 -9 87 -23 125 -99 264 -60 109 -193 252 -276 295 -59
31 -63 40 -32 79 20 26 71 37 83 17z m-623 -110 c26 -28 26 -28 23 -182 -1
-85 -7 -172 -13 -194 -5 -22 -14 -57 -20 -79 -5 -21 -14 -43 -20 -49 -6 -6
-11 -21 -11 -33 0 -12 -7 -27 -15 -34 -8 -7 -15 -19 -15 -26 0 -8 -13 -40 -29
-71 -16 -32 -39 -87 -51 -123 -11 -36 -24 -74 -29 -85 -57 -138 -55 -424 4
-560 7 -16 21 -50 31 -75 19 -46 53 -102 67 -108 13 -6 8 -32 -7 -32 -19 0
-89 82 -121 144 -14 28 -35 65 -46 81 -10 17 -21 37 -25 45 -3 8 -12 30 -20
48 -8 18 -14 39 -14 48 0 8 -7 26 -16 40 -26 39 -25 213 1 279 16 41 20 73 19
170 0 73 -5 129 -12 142 -31 56 -52 309 -32 378 34 113 101 198 225 280 62 41
84 40 126 -4z m511 -3 c13 -13 42 -35 63 -49 58 -39 127 -107 166 -164 19 -27
36 -52 39 -55 20 -20 110 -199 110 -219 0 -9 4 -21 9 -26 5 -6 14 -67 20 -136
10 -109 9 -134 -5 -185 -9 -32 -19 -76 -24 -97 -4 -21 -13 -44 -19 -50 -6 -6
-11 -28 -11 -48 0 -70 -43 -59 -55 14 -4 23 -11 47 -15 52 -4 6 -10 23 -14 40
-4 16 -11 32 -14 35 -4 3 -16 22 -26 43 -11 21 -27 47 -35 57 -9 10 -27 34
-41 52 -29 38 -126 153 -153 183 -116 125 -175 248 -196 405 -11 85 -3 104 53
116 17 3 37 11 45 17 20 16 54 35 67 36 6 1 22 -9 36 -21z m-377 -49 c4 -6 8
-55 10 -108 2 -103 17 -202 41 -285 8 -26 14 -61 14 -77 0 -15 5 -31 10 -34 6
-3 10 -18 10 -33 1 -15 9 -45 20 -67 11 -22 19 -46 20 -52 0 -7 5 -13 10 -13
6 0 10 -5 10 -11 0 -9 19 -57 50 -124 20 -43 41 -112 50 -160 5 -27 13 -68 19
-90 13 -51 13 -358 0 -410 -6 -22 -14 -61 -19 -86 -9 -50 -23 -80 -54 -116
-16 -19 -30 -23 -81 -23 -60 0 -63 1 -101 44 -84 93 -129 157 -162 231 -13 28
-28 59 -34 69 -11 21 -13 300 -2 318 7 11 21 87 42 223 5 28 13 66 19 85 12
36 28 101 57 226 12 51 18 133 21 285 2 118 4 215 4 217 3 7 41 0 46 -9z m98
-111 c4 -77 12 -111 47 -198 23 -58 48 -123 57 -145 33 -85 117 -232 170 -300
47 -59 79 -163 94 -305 10 -98 9 -141 -5 -285 -23 -237 -32 -258 -122 -301
-76 -36 -85 -25 -49 61 7 17 18 55 25 85 17 70 25 407 11 435 -6 11 -15 45
-20 75 -21 116 -29 141 -86 265 -12 28 -32 73 -44 100 -12 28 -26 59 -31 70
-10 20 -20 60 -40 150 -6 28 -18 70 -25 95 -18 57 -28 256 -14 281 18 34 26
12 32 -83z m243 -430 c214 -257 238 -298 304 -514 16 -53 0 -191 -26 -229 -8
-11 -14 -29 -14 -42 0 -12 -4 -25 -10 -28 -5 -3 -21 -30 -35 -58 -14 -29 -34
-63 -44 -77 -17 -21 -21 -23 -26 -8 -4 9 -1 27 6 40 32 60 39 457 9 523 -5 11
-12 36 -16 55 -10 50 -104 212 -169 290 -18 21 -65 109 -65 120 0 23 22 5 86
-72z m-466 -3 c0 -8 -4 -15 -10 -15 -5 0 -10 7 -10 15 0 8 5 15 10 15 6 0 10
-7 10 -15z m-20 -56 c0 -11 -5 -30 -12 -42 -11 -21 -30 -99 -47 -197 -4 -25
-13 -65 -19 -90 -19 -74 -31 -279 -21 -350 8 -59 27 -120 50 -160 4 -8 18 -33
30 -55 23 -42 71 -108 101 -138 24 -23 23 -47 -1 -47 -20 0 -87 70 -116 120
-30 51 -75 150 -97 212 -20 56 -22 81 -22 233 1 134 5 178 18 209 9 21 16 48
16 60 0 11 6 32 13 46 8 14 17 40 20 58 9 43 65 162 77 162 6 0 10 -9 10 -21z
m-462 -329 c28 -37 72 -164 72 -205 0 -17 5 -46 10 -65 22 -74 28 -119 16
-136 -20 -26 -42 11 -67 111 -23 94 -25 101 -57 175 -50 115 -31 198 26 120z
m1469 15 c5 -14 -19 -107 -38 -145 -18 -38 -38 -99 -44 -135 -11 -68 -29 -115
-52 -137 -20 -19 -23 -19 -29 -4 -3 9 1 52 10 96 9 44 16 95 16 113 0 18 7 42
15 53 8 10 15 28 15 40 0 11 7 29 15 40 8 10 15 25 15 33 0 19 40 61 57 61 8
0 16 -7 20 -15z m-1231 -573 c27 -53 114 -152 159 -179 92 -56 178 -78 310
-77 184 1 280 38 379 145 33 37 70 84 81 105 29 57 57 94 67 88 12 -8 10 -39
-6 -76 -7 -18 -24 -60 -37 -93 -12 -33 -34 -75 -48 -94 l-26 -35 0 -278 c0
-205 -3 -278 -12 -278 -19 0 -88 150 -107 230 -9 41 -19 108 -23 148 -5 66 -8
73 -30 78 -14 4 -29 2 -34 -3 -11 -11 23 -217 49 -298 33 -105 110 -199 228
-281 62 -43 253 -138 300 -150 15 -4 39 -13 53 -20 14 -8 32 -14 39 -14 7 0
20 -4 30 -9 38 -21 133 -41 237 -51 128 -12 236 -29 250 -40 6 -4 23 -10 38
-14 78 -19 172 -109 202 -193 10 -27 21 -57 25 -68 19 -46 39 -125 51 -195 6
-41 15 -97 20 -125 4 -27 8 -85 8 -127 1 -42 6 -89 12 -105 6 -15 13 -83 16
-151 3 -67 10 -125 15 -128 4 -3 8 -42 9 -87 0 -45 4 -118 9 -162 10 -89 13
-120 29 -380 6 -99 16 -224 21 -279 6 -54 10 -140 10 -191 0 -52 4 -105 9
-119 6 -13 13 -93 16 -178 8 -191 23 -262 75 -348 15 -26 40 -83 40 -93 0 -5
6 -23 13 -40 63 -147 70 -251 72 -1102 1 -662 4 -755 26 -795 16 -30 49 -109
49 -119 0 -6 7 -27 16 -48 9 -21 24 -54 32 -73 8 -19 19 -43 23 -52 5 -10 9
-22 9 -27 0 -5 5 -22 12 -38 54 -132 56 -150 27 -248 -11 -38 -24 -90 -28
-115 -10 -57 -32 -131 -44 -147 -12 -16 -166 -119 -207 -140 -8 -4 -37 -19
-63 -35 -26 -15 -54 -28 -63 -28 -8 0 -22 -4 -32 -9 -121 -65 -167 -68 -137
-12 15 31 45 48 95 55 66 9 129 27 141 42 6 8 15 14 20 14 12 0 97 59 134 92
16 16 34 28 38 28 16 0 35 67 47 162 6 54 9 102 5 108 -3 5 -17 10 -30 10 -28
0 -36 -22 -33 -85 6 -110 0 -136 -41 -175 -68 -65 -180 -133 -235 -143 -84
-15 -110 -14 -114 6 -4 21 66 56 112 57 23 0 43 15 98 73 l69 72 -6 50 c-3 28
-8 61 -10 75 -2 14 -4 35 -4 47 -1 12 -7 28 -15 36 -8 7 -24 35 -36 62 -18 39
-21 62 -18 114 2 38 9 66 16 69 20 6 15 52 -5 52 -28 0 -38 -11 -56 -60 -27
-73 -22 -102 38 -235 12 -27 27 -81 33 -120 9 -58 9 -74 -4 -93 -8 -13 -23
-22 -32 -20 -14 3 -17 15 -18 63 0 33 -8 85 -18 115 -9 30 -24 80 -34 110 -20
66 -19 187 2 251 14 42 22 79 48 215 12 64 10 81 -26 234 -8 36 -21 91 -28
122 -7 31 -17 60 -21 64 -4 4 -7 17 -7 28 0 12 -6 33 -13 47 -8 14 -17 45 -21
70 -4 24 -11 58 -16 74 -5 17 -19 64 -31 105 -12 41 -25 82 -29 91 -5 9 -12
38 -15 65 -4 27 -11 54 -15 59 -4 6 -11 29 -15 52 -4 24 -10 45 -15 48 -5 3
-11 24 -15 48 -4 23 -11 50 -16 59 -5 10 -14 37 -19 60 -13 66 -31 131 -40
153 -13 29 -50 198 -50 226 0 13 -7 42 -15 64 -8 22 -14 59 -15 83 0 23 -4 50
-9 60 -11 20 -38 271 -47 426 -3 60 -12 142 -20 183 -8 41 -14 92 -14 114 0
22 -4 47 -10 57 -5 9 -14 58 -20 107 -18 163 -59 421 -80 513 -13 56 -13 114
1 149 6 15 18 54 25 86 8 31 21 85 30 120 8 34 20 87 25 117 5 30 13 59 18 65
4 5 18 39 30 75 13 36 27 74 31 85 64 149 66 155 95 270 25 97 26 135 3 163
-16 19 -36 -3 -43 -47 -3 -20 -11 -65 -16 -101 -6 -36 -14 -74 -19 -85 -24
-56 -40 -96 -60 -150 -12 -33 -28 -71 -35 -85 -6 -14 -20 -52 -29 -85 -9 -33
-21 -68 -27 -77 -5 -10 -9 -29 -9 -42 0 -14 -5 -37 -11 -53 -6 -15 -17 -55
-24 -88 -7 -33 -21 -87 -30 -120 -9 -33 -20 -78 -24 -100 -8 -44 -26 -103 -46
-150 -7 -17 -16 -46 -20 -65 -4 -19 -11 -39 -15 -45 -4 -5 -11 -34 -15 -62 -4
-29 -11 -55 -15 -58 -5 -3 -11 -24 -15 -47 -4 -23 -11 -49 -15 -58 -4 -8 -13
-44 -20 -80 -26 -133 -39 -197 -56 -265 -20 -83 -30 -300 -15 -330 6 -11 20
-45 31 -75 36 -94 29 -81 243 -505 45 -88 84 -161 89 -163 4 -2 8 -8 8 -13 0
-9 11 -36 55 -134 7 -16 18 -41 23 -55 6 -14 17 -41 25 -60 8 -19 25 -78 37
-130 12 -52 26 -108 32 -125 5 -16 14 -64 19 -105 5 -41 14 -115 20 -165 14
-119 14 -694 0 -820 -6 -55 -15 -131 -20 -170 -4 -38 -13 -92 -19 -120 -6 -27
-20 -106 -31 -175 -11 -69 -22 -138 -25 -155 -3 -16 -12 -64 -21 -105 -9 -41
-20 -100 -26 -130 -5 -30 -14 -59 -20 -64 -5 -6 -9 -26 -9 -46 0 -19 -9 -67
-20 -105 -11 -38 -20 -82 -20 -97 0 -15 -4 -29 -9 -32 -5 -3 -12 -27 -16 -53
-4 -27 -10 -52 -15 -58 -4 -5 -10 -32 -14 -58 -3 -27 -9 -54 -13 -60 -5 -7
-13 -34 -20 -62 -17 -72 -34 -137 -44 -160 -4 -11 -11 -40 -15 -65 -3 -25 -10
-49 -14 -55 -4 -5 -11 -26 -15 -45 -4 -19 -11 -41 -16 -50 -14 -27 -39 -118
-46 -165 -3 -25 -10 -48 -14 -51 -5 -3 -9 -18 -9 -34 0 -16 -5 -41 -11 -57
-11 -26 -22 -87 -49 -261 -27 -172 -42 -578 -23 -637 7 -22 13 -51 13 -65 0
-14 7 -56 16 -95 8 -38 19 -110 24 -160 5 -49 14 -126 20 -170 14 -96 8 -440
-8 -505 -6 -25 -16 -88 -21 -140 -12 -110 -34 -245 -56 -345 -9 -38 -21 -99
-26 -135 -6 -36 -15 -69 -20 -74 -5 -6 -9 -25 -9 -44 0 -31 -24 -141 -50 -227
-5 -16 -12 -50 -16 -75 -4 -25 -10 -49 -14 -55 -4 -5 -10 -31 -13 -57 -4 -26
-11 -56 -16 -65 -9 -19 -27 -84 -45 -170 -6 -28 -15 -55 -19 -59 -4 -4 -7 -17
-7 -28 0 -20 -17 -77 -45 -156 -7 -19 -23 -78 -35 -130 -12 -52 -25 -104 -30
-115 -5 -11 -12 -40 -16 -65 -3 -24 -10 -51 -14 -60 -13 -25 -34 -180 -34
-250 1 -78 22 -263 35 -306 5 -16 12 -66 15 -110 3 -43 9 -88 14 -99 4 -11 13
-67 19 -125 6 -58 20 -172 32 -255 26 -191 34 -366 19 -425 -40 -161 -27 -146
-192 -219 -26 -12 -52 -21 -58 -21 -5 0 -18 -4 -28 -9 -27 -16 -153 -50 -205
-57 -43 -6 -51 -4 -77 21 -17 16 -30 38 -30 50 0 11 -5 26 -10 31 -30 30 -30
429 -1 507 6 16 11 49 11 75 0 26 7 74 15 107 8 33 14 83 15 112 0 28 5 55 10
58 6 4 27 -7 48 -23 48 -38 105 -53 195 -52 40 1 86 0 102 -2 27 -3 30 0 30
27 l0 30 -120 3 c-134 2 -167 13 -222 71 -18 18 -38 52 -44 75 -15 53 -6 187
16 251 19 53 31 117 45 231 4 40 13 81 19 92 14 27 14 590 0 652 -6 25 -14
104 -19 175 -13 187 -28 350 -39 425 -5 36 -15 124 -21 195 -7 72 -16 166 -21
210 -12 107 -12 536 1 649 6 50 15 136 21 191 6 55 15 127 21 160 19 114 22
430 5 550 -23 156 -38 345 -36 450 1 50 -2 106 -6 126 -4 20 -10 135 -15 255
-4 121 -10 233 -13 249 -3 17 -9 118 -12 225 -4 107 -13 230 -21 274 -17 94
-20 805 -4 901 6 33 14 101 19 152 5 51 14 107 20 125 6 18 13 54 16 80 4 26
13 55 21 63 14 14 21 10 68 -32 29 -27 81 -62 117 -80 113 -55 161 -66 321
-71 125 -4 161 -1 249 18 57 13 111 26 119 30 50 25 108 50 115 50 10 0 148
92 157 105 13 17 9 45 -7 51 -8 3 -39 -13 -72 -38 -32 -24 -74 -51 -93 -60
-76 -36 -130 -58 -142 -58 -8 0 -18 -4 -24 -10 -5 -5 -64 -15 -131 -21 -128
-12 -362 -1 -399 19 -11 6 -39 20 -63 32 -84 41 -136 82 -182 143 -49 65 -89
143 -89 174 0 11 -4 23 -10 29 -23 23 -34 116 -33 294 0 180 10 286 30 326 6
10 19 46 28 79 20 66 47 116 82 155 26 28 28 41 11 58 -20 20 -42 13 -62 -21
-50 -87 -76 -139 -76 -153 0 -9 -7 -30 -14 -47 -8 -18 -16 -45 -18 -60 -5 -45
-22 -33 -42 29 -43 132 -80 210 -117 244 -25 22 -36 27 -46 18 -20 -17 -15
-40 16 -74 16 -16 32 -41 36 -55 4 -13 14 -33 21 -44 8 -11 14 -30 14 -42 0
-13 4 -23 10 -23 5 0 12 -17 15 -37 3 -21 14 -51 23 -68 14 -25 16 -67 17
-275 0 -218 -2 -249 -17 -273 -10 -14 -18 -31 -18 -38 0 -11 -15 -48 -52 -128
-28 -60 -78 -119 -127 -151 -13 -8 -29 -19 -35 -25 -16 -15 -95 -51 -146 -68
-108 -35 -427 -28 -535 11 -132 49 -185 76 -245 123 -56 44 -86 44 -75 0 4
-14 11 -28 16 -29 5 -2 15 -9 22 -16 14 -14 115 -76 123 -76 3 0 26 -9 52 -21
26 -11 56 -24 67 -29 11 -4 52 -16 90 -26 99 -27 370 -27 469 -1 99 27 204 86
272 154 17 16 29 22 35 16 15 -15 39 -112 39 -156 0 -21 5 -48 11 -59 7 -12
15 -69 20 -127 4 -58 12 -128 18 -156 12 -62 13 -598 0 -680 -5 -33 -12 -103
-15 -155 -3 -52 -10 -153 -15 -225 -6 -71 -14 -204 -19 -295 -4 -91 -13 -257
-19 -370 -6 -113 -14 -275 -17 -360 -11 -235 -27 -391 -44 -422 -13 -23 -13
-244 -1 -267 6 -10 13 -62 16 -116 3 -54 8 -101 10 -105 11 -18 45 -494 45
-634 0 -166 -22 -531 -40 -651 -6 -38 -13 -110 -16 -159 -3 -49 -9 -97 -13
-105 -5 -9 -11 -68 -15 -132 -3 -64 -10 -139 -16 -167 -15 -79 -23 -622 -11
-732 17 -154 29 -238 40 -273 58 -183 68 -292 31 -371 -19 -43 -76 -96 -102
-96 -8 0 -18 -4 -24 -10 -5 -5 -63 -11 -129 -12 l-120 -3 0 -30 c0 -26 3 -30
25 -26 32 4 117 6 150 2 37 -4 111 19 147 45 53 40 59 34 67 -58 4 -45 11
-102 17 -127 6 -26 15 -82 20 -126 5 -44 13 -102 18 -130 15 -78 12 -273 -4
-320 -8 -22 -15 -50 -15 -62 0 -12 -9 -40 -21 -62 -23 -44 -62 -60 -116 -47
-59 14 -169 47 -185 57 -10 5 -23 9 -28 9 -22 0 -166 68 -191 90 -10 8 -27 39
-38 68 -19 47 -21 73 -20 230 0 97 4 200 10 227 5 28 11 73 14 100 3 28 14
109 25 180 10 72 22 150 25 175 3 25 12 97 21 160 37 283 40 349 24 455 -20
134 -30 191 -36 205 -5 14 -48 172 -74 280 -7 25 -15 54 -20 65 -5 11 -16 47
-25 80 -9 33 -23 80 -30 105 -7 25 -16 64 -20 88 -4 24 -13 56 -21 70 -8 15
-14 41 -14 59 0 17 -4 34 -9 37 -4 3 -11 25 -15 48 -8 52 -62 283 -82 352 -8
26 -14 58 -14 70 0 11 -6 50 -14 86 -8 36 -19 90 -25 120 -6 30 -18 91 -27
135 -9 44 -20 116 -25 160 -4 44 -13 109 -19 145 -14 84 -14 512 0 610 6 41
13 100 16 130 6 70 43 259 56 286 10 21 6 316 -6 432 -3 35 -13 105 -22 155
-9 51 -20 121 -24 157 -10 74 -28 168 -37 190 -7 16 -25 85 -43 165 -6 28 -15
57 -20 66 -5 9 -12 34 -16 55 -3 22 -10 44 -14 49 -5 6 -11 27 -15 48 -4 20
-11 40 -16 43 -5 3 -9 19 -9 35 0 16 -6 45 -14 64 -8 19 -18 55 -22 81 -4 26
-13 59 -20 73 -8 14 -14 37 -14 52 0 14 -4 29 -9 35 -5 5 -14 36 -19 69 -6 33
-17 87 -26 120 -8 33 -20 83 -26 110 -6 28 -15 64 -20 80 -6 17 -14 57 -19 90
-6 33 -17 92 -26 130 -17 75 -50 249 -66 355 -28 183 -36 226 -41 240 -17 42
-33 325 -33 585 0 281 17 538 36 560 5 5 9 27 9 50 1 22 7 58 15 80 8 22 15
49 15 61 0 36 51 193 80 246 6 10 10 23 10 30 0 7 13 38 29 68 15 30 37 73 48
95 11 22 48 96 83 165 35 69 77 152 93 185 15 33 32 67 37 75 15 25 78 157
114 240 40 91 47 175 28 315 -9 68 -44 230 -63 289 -5 16 -9 46 -9 66 0 20 -3
40 -7 44 -4 4 -13 31 -19 59 -7 29 -19 77 -29 107 -9 30 -22 80 -30 110 -7 30
-23 82 -35 115 -32 90 -55 175 -81 300 -6 33 -18 74 -25 92 -8 17 -14 45 -14
61 0 17 -4 33 -9 36 -4 3 -11 26 -14 51 -4 24 -11 53 -16 62 -19 38 -81 203
-81 218 0 8 -4 15 -10 15 -5 0 -10 7 -10 16 0 9 -7 30 -15 47 -22 48 -45 146
-45 193 0 55 -8 74 -30 74 -34 0 -45 -27 -32 -78 6 -26 13 -65 17 -87 8 -54
39 -140 76 -217 5 -10 9 -23 9 -28 0 -6 9 -30 19 -53 10 -23 27 -67 36 -97 10
-30 21 -62 26 -71 4 -9 11 -38 14 -65 4 -27 10 -53 14 -59 3 -5 11 -32 17 -60
7 -27 19 -79 28 -115 14 -55 15 -78 6 -159 -7 -51 -14 -103 -16 -115 -3 -11
-10 -50 -15 -86 -6 -36 -15 -79 -20 -96 -5 -17 -9 -50 -9 -75 0 -24 -7 -71
-15 -104 -8 -33 -14 -81 -15 -107 0 -26 -4 -58 -10 -73 -5 -14 -17 -83 -25
-152 -9 -70 -18 -130 -20 -134 -3 -3 -8 -76 -11 -160 -4 -85 -10 -164 -15
-177 -5 -13 -9 -44 -9 -69 0 -24 -6 -72 -14 -106 -19 -79 -33 -154 -47 -242
-6 -38 -14 -79 -19 -90 -5 -11 -13 -38 -18 -60 -6 -22 -18 -65 -27 -95 -9 -30
-20 -75 -25 -99 -6 -24 -24 -89 -40 -145 -17 -56 -35 -117 -40 -136 -21 -81
-53 -188 -66 -223 -8 -20 -14 -51 -14 -67 0 -16 -4 -31 -9 -34 -4 -3 -11 -24
-15 -47 -4 -23 -10 -47 -14 -53 -4 -6 -12 -33 -19 -61 -6 -27 -19 -77 -28
-110 -10 -33 -22 -88 -29 -122 -6 -34 -14 -65 -19 -69 -10 -11 -9 -171 3 -192
5 -9 14 -42 19 -72 5 -30 20 -95 32 -144 l21 -89 -21 -76 c-12 -42 -29 -101
-37 -131 -9 -30 -19 -86 -23 -124 -6 -73 -18 -88 -46 -60 -34 34 -1 187 65
306 16 29 12 124 -7 165 -24 50 -34 56 -57 33 -19 -19 -19 -20 -1 -40 14 -15
18 -36 18 -88 0 -67 -13 -106 -51 -154 -7 -9 -16 -42 -18 -73 -3 -31 -9 -68
-15 -81 -15 -41 -11 -53 34 -98 23 -24 54 -57 68 -73 20 -23 39 -32 77 -37 53
-7 102 -37 102 -63 0 -16 -3 -16 -131 5 -38 7 -98 40 -156 87 -7 6 -30 24 -52
40 -22 17 -43 37 -48 45 -4 8 -10 62 -13 120 -5 97 -7 105 -26 108 -26 4 -50
-23 -37 -40 6 -7 13 -54 16 -105 7 -111 16 -124 156 -217 101 -66 172 -96 229
-96 24 0 42 -8 63 -29 63 -64 20 -80 -79 -31 -34 16 -66 30 -72 30 -12 0 -116
56 -140 75 -8 6 -22 15 -30 19 -75 34 -176 119 -183 152 -23 115 -43 201 -68
281 -7 24 -6 45 7 85 9 29 20 58 24 63 4 6 11 26 15 45 4 19 11 41 16 50 5 8
18 38 29 65 12 28 25 59 30 70 5 11 12 31 15 45 6 23 24 68 47 113 10 21 29
103 30 132 1 11 -2 254 -6 540 -6 422 -5 570 8 785 9 146 21 283 27 305 28
104 52 183 65 212 8 17 14 34 14 37 0 4 10 23 23 44 46 74 56 120 63 282 3 85
9 166 14 180 5 14 11 97 15 185 3 88 10 178 15 200 5 22 10 96 11 165 1 69 6
161 10 205 5 44 13 132 19 195 5 63 14 167 20 230 6 63 13 158 16 210 3 52 10
99 15 104 5 6 9 46 9 90 0 45 5 110 11 146 5 36 14 100 19 142 5 42 13 85 18
95 5 10 13 37 17 61 4 24 13 56 21 70 8 15 14 32 14 38 0 21 39 90 74 131 33
38 53 50 156 97 42 19 126 33 275 46 61 6 121 14 135 20 14 5 42 12 63 16 20
3 37 10 37 15 0 5 9 9 21 9 11 0 39 8 62 18 23 10 62 27 87 37 292 117 464
280 495 470 4 22 10 45 15 50 4 6 10 51 11 100 4 87 3 90 -18 93 -26 4 -28 -2
-48 -139 -19 -135 -28 -166 -68 -239 -33 -61 -60 -91 -71 -79 -3 3 -1 43 4 90
12 108 12 174 2 334 -9 128 -10 131 -55 220 -26 49 -47 98 -47 108 0 10 -7 29
-16 42 -9 14 -13 32 -9 45 6 20 8 20 24 6 10 -9 31 -42 47 -74z m495 -6218 c7
-27 14 -46 50 -131 7 -18 17 -33 21 -33 14 0 8 -54 -7 -74 -8 -11 -15 -32 -15
-47 0 -15 -4 -31 -10 -34 -5 -3 -10 -21 -10 -40 0 -19 -7 -60 -15 -92 -8 -31
-15 -96 -15 -145 0 -81 -9 -113 -25 -88 -4 6 -11 53 -16 103 -16 166 -39 290
-66 350 -15 36 -16 41 0 70 21 42 51 113 68 160 15 43 30 43 40 1z m-2182
-793 c65 -51 219 -139 313 -180 51 -22 103 -48 115 -59 23 -20 40 -68 29 -79
-7 -7 -50 14 -101 47 -16 11 -37 23 -45 27 -8 4 -33 19 -55 34 -45 30 -109 67
-172 100 -24 13 -43 26 -43 30 0 4 -8 10 -17 13 -23 8 -93 72 -93 85 0 20 32
11 69 -18z m4369 12 c-3 -18 -126 -117 -164 -133 -17 -7 -118 -65 -174 -100
-118 -74 -162 -100 -170 -100 -16 0 -12 43 6 68 9 13 41 34 72 48 95 42 126
57 142 65 8 5 24 14 35 19 11 6 32 18 47 28 15 9 58 37 97 61 39 24 74 47 77
52 10 16 36 10 32 -8z m-4181 -229 c17 -13 36 -24 41 -24 5 0 21 -9 36 -21 20
-16 26 -29 26 -59 0 -56 -18 -61 -54 -14 -17 21 -54 61 -82 89 -28 27 -54 58
-57 68 -6 16 -5 16 26 1 17 -9 46 -27 64 -40z m3980 -13 c-24 -25 -57 -61 -73
-80 -16 -19 -38 -42 -49 -53 -19 -18 -20 -18 -26 -1 -8 21 0 73 14 90 8 11 67
49 140 90 41 23 38 0 -6 -46z"/>
<path d="M10312 13628 c-16 -16 -15 -43 3 -58 8 -7 15 -18 15 -24 0 -6 9 -28
20 -49 11 -20 20 -44 20 -52 0 -8 4 -23 9 -33 20 -36 58 -197 63 -262 6 -83
-51 -238 -112 -309 -43 -49 -36 -94 11 -70 16 8 89 103 89 115 0 3 14 36 32
72 30 63 32 73 33 182 0 104 -3 125 -33 215 -18 55 -37 108 -42 117 -6 10 -10
23 -10 29 0 5 -11 34 -25 64 -26 58 -54 82 -73 63z"/>
<path d="M10993 13618 c-11 -13 -24 -34 -28 -48 -3 -14 -12 -38 -20 -55 -28
-64 -34 -81 -41 -115 -3 -19 -10 -41 -15 -50 -31 -57 -54 -290 -29 -305 6 -3
10 -15 10 -27 0 -66 128 -273 158 -254 20 12 13 53 -13 82 -27 29 -64 102 -89
177 -20 59 -21 182 -2 239 8 24 18 61 22 82 4 22 13 51 20 65 8 14 14 33 14
41 0 8 14 43 31 76 23 45 30 69 25 88 -8 32 -16 33 -43 4z"/>
<path d="M10647 12504 c-4 -4 -7 -352 -7 -774 l0 -767 25 -11 c16 -7 26 -8 31
-1 3 5 6 357 6 782 l0 772 -24 3 c-13 2 -27 0 -31 -4z"/>
<path d="M11110 10439 c-13 -6 -27 -13 -30 -18 -3 -4 -22 -20 -42 -35 -45 -34
-47 -42 -12 -58 23 -11 29 -10 43 8 9 11 33 30 54 43 27 17 37 29 35 44 -4 25
-15 29 -48 16z"/>
<path d="M10190 10421 c0 -19 43 -61 63 -61 5 0 15 -7 21 -14 6 -8 23 -18 38
-21 21 -6 27 -3 33 16 5 15 3 25 -4 27 -6 2 -17 9 -24 15 -60 56 -127 75 -127
38z"/>
<path d="M11420 6735 c-10 -12 -10 -39 -2 -128 12 -128 28 -228 42 -273 31
-94 28 -338 -4 -399 -20 -37 -20 -49 -2 -64 25 -21 53 4 67 56 17 67 23 296 9
363 -6 30 -20 92 -31 137 -12 52 -19 119 -19 181 0 90 -2 100 -23 121 -21 19
-25 20 -37 6z"/>
<path d="M9887 6734 c-4 -4 -7 -26 -7 -48 -1 -56 -36 -295 -56 -381 -21 -85
-30 -273 -15 -288 6 -6 11 -25 11 -41 1 -47 36 -118 57 -114 26 5 28 49 4 118
-23 66 -28 191 -10 270 48 220 60 304 57 402 -2 65 -6 83 -18 86 -9 1 -19 0
-23 -4z"/>
<path d="M10276 6484 c-10 -27 -7 -89 8 -140 30 -104 56 -213 56 -238 0 -14 5
-46 12 -70 9 -35 9 -51 0 -71 -16 -35 0 -67 31 -63 21 3 22 8 22 108 0 101
-12 163 -51 288 -8 23 -14 67 -14 98 0 56 -21 104 -45 104 -7 0 -16 -7 -19
-16z"/>
<path d="M11026 6483 c-9 -32 -25 -127 -32 -186 -3 -31 -10 -60 -15 -62 -4 -3
-11 -26 -15 -50 -3 -25 -10 -48 -15 -51 -5 -3 -9 -54 -9 -114 0 -89 3 -109 16
-114 41 -16 44 -10 44 99 0 63 6 121 14 147 8 24 17 59 21 78 3 19 10 44 15
55 16 37 29 166 20 191 -11 28 -36 32 -44 7z"/>
</g>
</svg>
