<svg width="1800" height="2408" viewBox="0 0 1800 2408" fill="none" xmlns="http://www.w3.org/2000/svg">
<g id="body_zones">
<path id="glutei" d="M1600.81 1015H1227.39L1198 1127.56V1194.83L1227.28 1234.54L1339.85 1253.47L1407.17 1194.62L1407.51 1194.33L1407.84 1194.63L1472.2 1253.5H1544.39L1622 1218.68V1033.73L1600.81 1015ZM1622.71 1219.46L1544.71 1254.46L1544.61 1254.5H1471.81L1471.66 1254.37L1407.49 1195.67L1340.33 1254.38L1340.15 1254.53L1339.92 1254.49L1226.92 1235.49L1226.72 1235.46L1226.6 1235.3L1197.1 1195.3L1197 1195.16V1127.44L1197.02 1127.37L1226.52 1014.37L1226.61 1014H1601.19L1601.33 1014.12L1622.83 1033.12L1623 1033.27V1219.32L1622.71 1219.46Z" fill="black"/>
<path id="bassa_schiena" d="M1544.26 871.395L1607.22 1013.8L1607.53 1014.5H1219L1219.3 1013.8L1264.8 908.302L1264.81 908.281L1264.82 908.263L1284.76 871.374V843H1544.26V871.395ZM1285.7 871.737L1265.71 908.712L1220.52 1013.5H1605.99L1543.3 871.702L1543.26 871.605V844H1285.76V871.627L1285.7 871.737Z" fill="black"/>
<path id="alta_schiena" d="M1522.7 501.033L1622.2 539.533L1622.52 539.657V630.071L1622.5 630.141L1590.5 739.641L1590.5 739.648L1558.5 842.648L1558.39 843H1290.12L1290.04 842.606L1267.55 739.655L1219.07 630.202L1219 630.054L1219.04 629.895L1238.54 539.895L1238.59 539.63L1238.84 539.533L1338.84 501.033L1338.93 501H1522.62L1522.7 501.033ZM1220.05 629.945L1268.48 739.298L1268.5 739.344L1268.51 739.394L1290.93 842H1557.66L1589.55 739.352L1621.52 629.929V540.343L1522.43 502H1339.12L1239.45 540.369L1220.05 629.945Z" fill="black"/>
<path id="gamba_sx" d="M458.933 1643L439.01 1769.51L459.002 1939.94L459.005 1939.97V2110H501.593L525.014 1989.9L525.021 1989.87L525.032 1989.84L568.505 1862.92V1643H458.933ZM569.478 1863.16L525.99 1990.12L502.496 2110.6L502.417 2111H458.005V1940.03L438.008 1769.56L438 1769.49L438.011 1769.42L458.011 1642.42L458.077 1642H569.505V1863.08L569.478 1863.16Z" fill="black"/>
<path id="coscia_sx" d="M640.498 1268.61L600.998 1450.61L600.993 1450.63L600.987 1450.65L568.01 1556.08V1635.5H448.01V1480.04L428.016 1348.08L428 1347.98L428.024 1347.88L448.024 1268.38L448.12 1268H640.63L640.498 1268.61ZM449.004 1479.92L449.01 1479.96V1634.5H567.01V1555.92L567.032 1555.85L600.027 1450.37L639.39 1269H448.9L429.019 1348.03L449.004 1479.92Z" fill="black"/>
<path id="gamba_dx" d="M400.511 2060.5H346.135L346.03 2060.14L297.53 1892.64L297.521 1892.6L297.516 1892.57L273.016 1709.07L273 1708.95L273.036 1708.84L297.536 1635.34L297.65 1635H400.511V2060.5ZM298.5 1892.39L346.887 2059.5H399.511V1636H298.371L274.021 1709.05L298.5 1892.39Z" fill="black"/>
<path id="coscia_dx" d="M215.256 1215.33L266.115 1497.05L295.111 1606.04L295.128 1606.1V1634.17H400.128V1260.06L215.256 1215.33ZM294.128 1635.17V1606.23L265.145 1497.29L265.14 1497.27L265.136 1497.25L214.136 1214.75L214 1214L214.745 1214.18L400.745 1259.18L401.128 1259.27V1635.17H294.128Z" fill="black"/>
<path id="inguine" d="M521.138 1110.68L459.638 1267.68L459.513 1268H328.3L328.193 1267.64L281.193 1110.64L281 1110H521.404L521.138 1110.68ZM458.83 1267L519.938 1111H282.343L329.044 1267H458.83Z" fill="black"/>
<path id="avambraccio_sx" d="M691.621 1170.88L723.065 1231.77L723.147 1231.93L723.11 1232.1L708.11 1302.6L708.073 1302.78L707.936 1302.89L670.936 1332.89L670.494 1333.25L670.195 1332.76L651.695 1302.76L651.621 1302.64V1231.96L651.627 1231.93L661.112 1169.02L607.133 922.607L607 922H691.621V1170.88ZM662.129 1168.98L662.115 1169.07L652.621 1232.04V1302.36L670.748 1331.75L707.168 1302.22L722.094 1232.07L690.677 1171.23L690.621 1171.12V923H608.242L662.109 1168.89L662.129 1168.98Z" fill="black"/>
<path id="braccio_sx" d="M633.198 528.302L633.454 528.412L633.495 528.688L652.995 661.688L652.998 661.71L652.999 661.732L664.499 866.232L664.529 866.761H591.584L591.508 866.352L570.008 749.352L570 749.307V501L570.698 501.302L633.198 528.302ZM592.417 865.761H663.472L652.002 661.816L632.545 529.108L571 502.521V749.212L592.417 865.761Z" fill="black"/>
<path id="avambraccio_dx" d="M229.652 906.122L230.124 906.243L230.015 906.719L173.541 1152.1L185.014 1199.49L185.038 1199.59L185.02 1199.69L173.584 1264.33L200.251 1277.66L200.698 1277.88L173.158 1332.96L172.667 1332.45L120.667 1278.45L120.571 1278.35L120.54 1278.22L107.04 1219.72L107 1219.54L107.081 1219.38L141.027 1151.99V954.039L141.045 953.974L159.045 888.474L159.176 888L159.652 888.122L229.652 906.122ZM141.974 1152.33L108.055 1219.67L121.483 1277.86L172.896 1331.25L199.356 1278.33L172.47 1264.89L172.535 1264.52L184.017 1199.62L172.541 1152.22L172.514 1152.11L172.54 1151.99L228.93 906.969L159.879 889.213L142.027 954.175V1152.23L141.974 1152.33Z" fill="black"/>
<path id="braccio_dx" d="M261.583 672.479L261.587 672.511V735.585L261.58 735.627L239.58 865.127L239.487 865.673L238.954 865.524L168.454 846.024L168 845.899L168.098 845.439L183.587 772.489V629.509L183.592 629.475L195.592 542.975L195.615 542.802L195.742 542.681L239.456 501L239.583 501.979L261.583 672.479ZM184.587 629.575V772.596L184.576 772.646L169.173 845.187L238.686 864.413L260.587 735.499V672.577L238.717 503.086L196.558 543.284L184.587 629.575Z" fill="black"/>
<path id="ascella_sx" d="M592.002 630.321L606.502 668.321L606.57 668.5L606.502 668.679L592.002 706.679L591.88 707H548.69L548.568 706.679L534.068 668.679L534 668.5L534.068 668.321L548.568 630.321L548.69 630H591.88L592.002 630.321ZM549.379 706H591.191L605.5 668.5L591.191 631H549.379L535.069 668.5L549.379 706Z" fill="black"/>
<path id="viso" d="M459.401 91.2021L472.401 108.702L472.582 108.944L472.45 109.217L459.555 135.998L467.425 152.23L520.89 218.687L521.025 218.855L520.995 219.069L511.53 286.313L520.844 295.137L521.074 295.354L520.976 295.655L501.476 355.155L501.362 355.5H483.5V385.171L483.396 385.306L452.896 424.806L452.83 424.891L452.735 424.941L421.735 441.441L421.566 441.531L421.381 441.485L396.881 435.485L396.805 435.467L396.737 435.426L379.737 424.926L379.663 424.88L379.609 424.812L348.109 385.312L348 385.175V365.227L325.172 345.377L325.079 345.297L325.034 345.182L310.034 306.682L310 306.594V295.217L310.243 295.071L324.837 286.314L310.058 258.232L310 258.124V218.903L310.036 218.814L325.036 181.314L325.062 181.246L325.108 181.189L348.108 152.189L348.196 152.078L348.33 152.03L370.944 143.85L360.706 136.404L360.5 136.255V108.855L360.577 108.734L371.577 91.2344L371.724 91H459.251L459.401 91.2021ZM361.5 135.745L372.294 143.596L373.056 144.149L372.17 144.47L348.804 152.921L325.937 181.754L311 219.095V257.877L325.942 286.268L326.163 286.686L325.757 286.929L311 295.782V306.405L325.921 344.703L348.828 364.623L349 364.772V384.825L380.335 424.118L397.196 434.533L421.433 440.469L452.17 424.108L482.5 384.829V354.5H500.638L519.926 295.645L510.656 286.863L510.469 286.686L510.505 286.431L519.975 219.145L466.61 152.813L466.575 152.77L466.55 152.718L458.55 136.218L458.444 136.001L458.55 135.783L471.418 109.055L458.749 92H372.275L361.5 109.143V135.745Z" fill="black"/>
<path id="petto" d="M490.367 539.15L560.867 611.15L560.991 611.276L561.008 611.452L570.008 705.952L570.018 706.054L569.986 706.151L549.486 770.651L549.454 770.753L549.383 770.833L499.883 826.333L499.733 826.5H388.422L388.34 826.47L301.34 794.97L301.153 794.902L301.063 794.726L275.063 743.226L275.033 743.165L275.02 743.098L262.02 678.098L262 678.003L262.019 677.907L275.019 609.407L275.045 609.27L275.138 609.165L338.138 539.165L338.287 539H490.22L490.367 539.15ZM263.019 677.997L275.986 742.834L301.866 794.098L388.596 825.5H499.286L548.565 770.246L569.002 705.946L560.028 611.723L489.8 540H338.733L275.974 609.731L263.019 677.997Z" fill="black"/>
<path id="addome" d="M481.973 816.292L518.458 896.261L569.938 975.729L570.018 975.853V1050.27L569.798 1050.41L481.798 1109.91L481.671 1110H364.306L364.158 1109.85L306.658 1050.35L306.569 1050.26L306.536 1050.13L286.036 976.134L286 976.005L286.033 975.875L306.533 896.375L306.572 896.226L306.688 896.124C333.348 872.797 389.194 824.118 399.205 816.109L399.342 816H481.839L481.973 816.292ZM399.695 817C389.363 825.301 334.064 873.498 307.463 896.773L287.034 975.996L307.465 1049.74L364.729 1109H481.364L569.018 1049.73V976.147L517.598 896.771L517.578 896.741L517.562 896.708L481.195 817H399.695Z" fill="black"/>
<path id="ascella_dx" d="M282.506 606.322L293.506 635.322L293.567 635.487L293.514 635.654L282.514 669.654L282.401 670H242.689L242.568 669.673L230.068 635.673L230 635.485L230.079 635.302L242.579 606.302L242.709 606H282.383L282.506 606.322ZM243.388 669H281.675L292.508 635.514L281.692 607H243.367L231.076 635.514L243.388 669Z" fill="black"/>
</g>
</svg>
